<svg width="500" height="500" viewBox="0 0 500 500" fill="none" xmlns="http://www.w3.org/2000/svg">
<circle cx="250.5" cy="249.5" r="234.5" fill="#151518"/>
<path fill-rule="evenodd" clip-rule="evenodd" d="M325.529 84.8354C325.529 109.045 291.704 128.671 249.979 128.671C208.254 128.671 174.43 109.045 174.43 84.8354C174.43 60.6258 208.254 41 249.979 41C291.704 41 325.529 60.6258 325.529 84.8354ZM325.529 415.128C325.529 439.337 291.704 458.963 249.979 458.963C208.254 458.963 174.43 439.337 174.43 415.128C174.43 390.918 208.254 371.292 249.979 371.292C291.704 371.292 325.529 390.918 325.529 415.128ZM144.696 189.349C165.558 153.301 165.423 114.259 144.393 102.146C123.364 90.0328 89.4036 109.436 68.5411 145.484C47.6786 181.533 47.814 220.575 68.8436 232.688C89.8731 244.801 123.833 225.398 144.696 189.349ZM431.109 267.287C452.124 279.392 452.248 318.428 431.385 354.476C410.523 390.524 376.574 409.934 355.559 397.829C334.543 385.724 334.42 346.689 355.282 310.64C376.145 274.592 410.093 255.182 431.109 267.287ZM144.404 397.819C165.433 385.706 165.569 346.664 144.706 310.616C123.844 274.567 89.8836 255.164 68.8541 267.277C47.8245 279.39 47.6891 318.432 68.5516 354.481C89.4141 390.529 123.374 409.932 144.404 397.819ZM431.403 145.509C452.266 181.557 452.142 220.593 431.126 232.698C410.111 244.803 376.162 225.393 355.3 189.344C334.437 153.296 334.561 114.26 355.577 102.155C376.592 90.0506 410.541 109.461 431.403 145.509Z" fill="url(#paint0_linear_30_1531)"/>
<defs>
<linearGradient id="paint0_linear_30_1531" x1="64.5" y1="395" x2="462" y2="108.5" gradientUnits="userSpaceOnUse">
<stop stop-color="#B47BFE"/>
<stop offset="0.999858" stop-color="#F0DDFA"/>
</linearGradient>
</defs>
</svg>
