<svg width="15" height="11" viewBox="0 0 15 11" fill="none" xmlns="http://www.w3.org/2000/svg">
<path d="M2.70049 8.39555C2.78448 8.31085 2.89997 8.26144 3.02246 8.26144H14.1306C14.3336 8.26144 14.435 8.50848 14.2916 8.65317L12.0972 10.8659C12.0132 10.9506 11.8978 11 11.7753 11H0.667152C0.464168 11 0.362677 10.7529 0.506165 10.6083L2.70049 8.39555Z" fill="#F0F0F0"/>
<path d="M2.70049 0.134103C2.78798 0.0494065 2.90347 0 3.02246 0H14.1306C14.3336 0 14.435 0.247033 14.2916 0.391723L12.0972 2.60443C12.0132 2.68913 11.8978 2.73853 11.7753 2.73853H0.667152C0.464168 2.73853 0.362677 2.4915 0.506165 2.34681L2.70049 0.134103Z" fill="#F0F0F0"/>
<path d="M12.0972 4.23832C12.0132 4.15362 11.8978 4.10422 11.7753 4.10422H0.667152C0.464168 4.10422 0.362677 4.35125 0.506165 4.49594L2.70049 6.70865C2.78448 6.79334 2.89997 6.84275 3.02246 6.84275H14.1306C14.3336 6.84275 14.435 6.59572 14.2916 6.45103L12.0972 4.23832Z" fill="#F0F0F0"/>
</svg>
