<svg width="12" height="13" viewBox="0 0 12 13" fill="none" xmlns="http://www.w3.org/2000/svg">
<path d="M10.4374 7.77229C10.2249 7.91085 9.97693 7.93605 9.78802 7.82267C9.55188 7.67151 9.4102 7.33139 9.4102 6.86531V5.44186C9.4102 4.76163 9.16225 4.27035 8.7372 4.14438C8.01697 3.91763 7.47384 4.8624 7.27313 5.21512L5.99797 7.39438V4.71124C5.98616 4.09399 5.79725 3.72868 5.44304 3.61531C5.2069 3.53973 4.85269 3.57752 4.51028 4.13178L1.66479 8.99418C1.28697 8.22577 1.08625 7.36919 1.08625 6.5C1.08625 3.56492 3.29416 1.18411 5.99797 1.18411C8.70177 1.18411 10.9097 3.56492 10.9097 6.5V6.5126V6.5252C10.9333 7.09206 10.768 7.54554 10.4374 7.77229ZM11.9959 6.5V6.4874V6.4748C11.9841 2.90988 9.29212 0 5.99797 0C2.692 0 0 2.90988 0 6.5C0 10.0775 2.692 13 5.99797 13C7.52107 13 8.96153 12.3827 10.0714 11.2616C10.2957 11.0349 10.3075 10.6696 10.095 10.4302C9.89428 10.1909 9.55188 10.1783 9.32755 10.3924C9.32755 10.3924 9.32755 10.3924 9.31574 10.405C8.41841 11.312 7.21409 11.8285 5.97435 11.8285C4.52209 11.8285 3.22332 11.1483 2.32598 10.0649L4.88811 5.6812V7.7093C4.88811 8.67926 5.24232 8.99419 5.53749 9.08236C5.83267 9.17054 6.28133 9.10756 6.76542 8.28876L8.17046 5.85756C8.21769 5.78198 8.25311 5.70639 8.30034 5.65601V6.8905C8.30034 7.79748 8.64274 8.5281 9.23309 8.88081C9.76441 9.20833 10.4374 9.17054 10.9923 8.80523C11.6771 8.32655 12.0432 7.49515 11.9959 6.5Z" fill="#6C6C70"/>
</svg>
