<svg width="14" height="12" viewBox="0 0 14 12" fill="none" xmlns="http://www.w3.org/2000/svg">
<path d="M11.6163 1.63326C10.7554 1.23044 9.83479 0.937691 8.87236 0.770996C8.75417 0.984693 8.61608 1.27212 8.52087 1.50077C7.49778 1.34691 6.48411 1.34691 5.47984 1.50077C5.38465 1.27212 5.24342 0.984693 5.12417 0.770996C4.1607 0.937691 3.23908 1.23152 2.37813 1.63539C0.641585 4.25953 0.170837 6.8185 0.406211 9.34112C1.55798 10.2012 2.67418 10.7237 3.77154 11.0656C4.04248 10.6927 4.28413 10.2963 4.4923 9.87856C4.09583 9.72791 3.7161 9.542 3.35729 9.32617C3.45248 9.25565 3.54559 9.18192 3.63555 9.10606C5.824 10.1297 8.20181 10.1297 10.3641 9.10606C10.4551 9.18192 10.5482 9.25565 10.6424 9.32617C10.2825 9.54306 9.90174 9.72897 9.50527 9.87964C9.71344 10.2963 9.95405 10.6938 10.226 11.0667C11.3245 10.7248 12.4417 10.2023 13.5935 9.34112C13.8696 6.41675 13.1217 3.88129 11.6163 1.63326ZM4.79045 7.78973C4.1335 7.78973 3.59474 7.17643 3.59474 6.42957C3.59474 5.68272 4.12199 5.06836 4.79045 5.06836C5.45892 5.06836 5.99766 5.68164 5.98616 6.42957C5.9872 7.17643 5.45892 7.78973 4.79045 7.78973ZM9.20922 7.78973C8.55227 7.78973 8.01351 7.17643 8.01351 6.42957C8.01351 5.68272 8.54074 5.06836 9.20922 5.06836C9.87767 5.06836 10.4164 5.68164 10.4049 6.42957C10.4049 7.17643 9.87767 7.78973 9.20922 7.78973Z" fill="#6C6C70"/>
</svg>
