<svg width="64" height="64" viewBox="0 0 64 64" fill="none" xmlns="http://www.w3.org/2000/svg">
<mask id="path-2-inside-1_22_1173" fill="white">
<path fill-rule="evenodd" clip-rule="evenodd" d="M52.9115 26.9578C49.739 14.882 36.8465 9.0703 27.3155 12.0133C37.5822 14.0383 46.0062 18.932 52.9115 26.9578ZM34.2207 18.2975C40.2147 20.8355 45.4932 24.3995 49.3205 29.7523C50.4081 31.2725 51.1373 33.0709 51.8557 34.8426L51.8557 34.8427L51.8558 34.8428C51.9444 35.0613 52.0328 35.2794 52.1217 35.4965C52.3789 36.1288 52.3469 36.88 52.316 37.6053L52.316 37.6055C52.308 37.7939 52.3 37.9805 52.2972 38.1628C44.2377 24.8315 32.513 18.0815 16.9272 17.69C18.149 16.664 19.6272 16.2118 21.2067 16.0228C25.7697 15.476 30.0695 16.5358 34.2207 18.2975ZM22.0977 22.7052C32.1215 24.2847 40.3227 29.003 46.1142 37.4405C47.2212 39.0537 47.7882 41.099 48.2877 43.043C48.6522 44.4605 48.4025 45.986 46.9985 47.228C44.9802 39.29 39.7962 34.1262 33.161 30.2787C26.5595 26.4515 19.5462 24.548 11.7297 26.7012C12.0132 25.0542 13.0662 24.278 14.2542 23.6705C16.7382 22.4015 19.445 22.2867 22.0977 22.7052ZM21.6455 30.1977C29.948 31.9257 36.671 36.077 41.18 43.4007C41.9495 44.6495 42.4153 46.1345 42.7865 47.5587C43.4143 49.982 43.0768 50.4207 40.4713 51.2172C38.615 44.9532 34.5313 40.5455 29.057 37.3797C23.6233 34.241 17.8183 32.864 11.5813 34.3422C10.6633 32.297 10.9603 31.487 12.911 30.7175C15.7595 29.597 18.7093 29.5902 21.6455 30.1977ZM12.4877 38.9554L12.4877 38.9554C12.8028 39.7608 13.1176 40.5657 13.64 41.1935C13.8958 41.5051 14.5102 41.5187 15.1238 41.5324C15.4009 41.5385 15.6779 41.5447 15.9215 41.5783C15.9823 41.585 16.043 41.5935 16.1038 41.6019C16.1645 41.6103 16.2253 41.6188 16.286 41.6255C23.2318 42.6583 28.7128 46.0198 32.6278 51.8855C32.8573 52.2298 33.2285 52.7428 33.5323 52.7428C34.3768 52.7379 35.2248 52.6423 36.0763 52.5463L36.0764 52.5463L36.0766 52.5463L36.0768 52.5463L36.077 52.5463C36.4095 52.5088 36.7425 52.4712 37.076 52.439C35.3075 42.6313 20.714 34.5853 12.0875 37.9805C12.2304 38.2976 12.3591 38.6265 12.4877 38.9554ZM15.4895 44.4133C19.175 49.091 23.8595 51.8181 29.867 52.7023C27.572 48.416 19.4855 43.7788 15.4895 44.4133Z"/>
</mask>
<path fill-rule="evenodd" clip-rule="evenodd" d="M52.9115 26.9578C49.739 14.882 36.8465 9.0703 27.3155 12.0133C37.5822 14.0383 46.0062 18.932 52.9115 26.9578ZM34.2207 18.2975C40.2147 20.8355 45.4932 24.3995 49.3205 29.7523C50.4081 31.2725 51.1373 33.0709 51.8557 34.8426L51.8557 34.8427L51.8558 34.8428C51.9444 35.0613 52.0328 35.2794 52.1217 35.4965C52.3789 36.1288 52.3469 36.88 52.316 37.6053L52.316 37.6055C52.308 37.7939 52.3 37.9805 52.2972 38.1628C44.2377 24.8315 32.513 18.0815 16.9272 17.69C18.149 16.664 19.6272 16.2118 21.2067 16.0228C25.7697 15.476 30.0695 16.5358 34.2207 18.2975ZM22.0977 22.7052C32.1215 24.2847 40.3227 29.003 46.1142 37.4405C47.2212 39.0537 47.7882 41.099 48.2877 43.043C48.6522 44.4605 48.4025 45.986 46.9985 47.228C44.9802 39.29 39.7962 34.1262 33.161 30.2787C26.5595 26.4515 19.5462 24.548 11.7297 26.7012C12.0132 25.0542 13.0662 24.278 14.2542 23.6705C16.7382 22.4015 19.445 22.2867 22.0977 22.7052ZM21.6455 30.1977C29.948 31.9257 36.671 36.077 41.18 43.4007C41.9495 44.6495 42.4153 46.1345 42.7865 47.5587C43.4143 49.982 43.0768 50.4207 40.4713 51.2172C38.615 44.9532 34.5313 40.5455 29.057 37.3797C23.6233 34.241 17.8183 32.864 11.5813 34.3422C10.6633 32.297 10.9603 31.487 12.911 30.7175C15.7595 29.597 18.7093 29.5902 21.6455 30.1977ZM12.4877 38.9554L12.4877 38.9554C12.8028 39.7608 13.1176 40.5657 13.64 41.1935C13.8958 41.5051 14.5102 41.5187 15.1238 41.5324C15.4009 41.5385 15.6779 41.5447 15.9215 41.5783C15.9823 41.585 16.043 41.5935 16.1038 41.6019C16.1645 41.6103 16.2253 41.6188 16.286 41.6255C23.2318 42.6583 28.7128 46.0198 32.6278 51.8855C32.8573 52.2298 33.2285 52.7428 33.5323 52.7428C34.3768 52.7379 35.2248 52.6423 36.0763 52.5463L36.0764 52.5463L36.0766 52.5463L36.0768 52.5463L36.077 52.5463C36.4095 52.5088 36.7425 52.4712 37.076 52.439C35.3075 42.6313 20.714 34.5853 12.0875 37.9805C12.2304 38.2976 12.3591 38.6265 12.4877 38.9554ZM15.4895 44.4133C19.175 49.091 23.8595 51.8181 29.867 52.7023C27.572 48.416 19.4855 43.7788 15.4895 44.4133Z" fill="url(#paint0_linear_22_1173)"/>
<path d="M52.9115 26.9578L52.6613 27.173L53.2307 26.8739L52.9115 26.9578ZM27.3155 12.0133L27.2181 11.698L27.2516 12.3371L27.3155 12.0133ZM49.3205 29.7523L49.0521 29.9442L49.0521 29.9443L49.3205 29.7523ZM34.2207 18.2975L34.0918 18.6013L34.0921 18.6014L34.2207 18.2975ZM51.8557 34.8426L51.5497 34.9667L51.5542 34.9767L51.8557 34.8426ZM51.8558 34.8428L52.1617 34.7187L52.1573 34.7087L51.8558 34.8428ZM52.1217 35.4965L52.4274 35.3722L52.4271 35.3715L52.1217 35.4965ZM52.316 37.6053L51.9863 37.5912L51.9863 37.5918L52.316 37.6053ZM52.316 37.6055L52.6457 37.6196L52.6457 37.619L52.316 37.6055ZM52.2972 38.1628L52.0148 38.3335L52.6096 39.3174L52.6272 38.1678L52.2972 38.1628ZM16.9272 17.69L16.715 17.4373L16.0473 17.998L16.919 18.0199L16.9272 17.69ZM21.2067 16.0228L21.246 16.3505L21.246 16.3504L21.2067 16.0228ZM46.1142 37.4405L46.3863 37.2538L46.3863 37.2537L46.1142 37.4405ZM22.0977 22.7052L22.0463 23.0312L22.0464 23.0312L22.0977 22.7052ZM48.2877 43.043L47.9681 43.1251L47.9681 43.1251L48.2877 43.043ZM46.9985 47.228L46.6787 47.3093L46.812 47.8336L47.2171 47.4751L46.9985 47.228ZM33.161 30.2787L33.3265 29.9932L33.3265 29.9932L33.161 30.2787ZM11.7297 26.7012L11.4045 26.6452L11.3164 27.1574L11.8174 27.0194L11.7297 26.7012ZM14.2542 23.6705L14.1041 23.3766L14.104 23.3767L14.2542 23.6705ZM41.18 43.4007L40.899 43.5737L40.8991 43.5738L41.18 43.4007ZM21.6455 30.1977L21.7128 29.8746L21.7124 29.8745L21.6455 30.1977ZM42.7865 47.5587L43.106 47.476L43.1058 47.4755L42.7865 47.5587ZM40.4713 51.2172L40.1549 51.311L40.2494 51.6301L40.5677 51.5328L40.4713 51.2172ZM29.057 37.3797L29.2222 37.094L29.2221 37.094L29.057 37.3797ZM11.5813 34.3422L11.2802 34.4773L11.3919 34.7262L11.6574 34.6633L11.5813 34.3422ZM12.911 30.7175L12.7902 30.4104L12.7899 30.4105L12.911 30.7175ZM12.4877 38.9554L12.7952 38.8352L12.7918 38.8272L12.4877 38.9554ZM12.4877 38.9554L12.1803 39.0757L12.1837 39.0837L12.4877 38.9554ZM13.64 41.1935L13.8951 40.9841L13.8937 40.9825L13.64 41.1935ZM15.1238 41.5324L15.1164 41.8623H15.1164L15.1238 41.5324ZM15.9215 41.5783L15.8764 41.9053L15.8851 41.9063L15.9215 41.5783ZM16.1038 41.6019L16.1492 41.275L16.1492 41.275L16.1038 41.6019ZM16.286 41.6255L16.3346 41.2989L16.3225 41.2975L16.286 41.6255ZM32.6278 51.8855L32.9024 51.7025L32.9023 51.7023L32.6278 51.8855ZM33.5323 52.7428V53.0728L33.5342 53.0728L33.5323 52.7428ZM36.0763 52.5463L36.0464 52.2176L36.0394 52.2184L36.0763 52.5463ZM36.0764 52.5463L36.1063 52.8751L36.115 52.8741L36.0764 52.5463ZM36.077 52.5463L36.0401 52.2183L36.0385 52.2185L36.077 52.5463ZM37.076 52.439L37.1077 52.7675L37.4644 52.7331L37.4008 52.3805L37.076 52.439ZM12.0875 37.9805L11.9667 37.6735L11.6444 37.8003L11.7867 38.1161L12.0875 37.9805ZM15.4895 44.4133L15.4378 44.0874L14.8821 44.1756L15.2303 44.6175L15.4895 44.4133ZM29.867 52.7023L29.8189 53.0288L30.4672 53.1242L30.1579 52.5465L29.867 52.7023ZM53.2307 26.8739C50.0084 14.6089 36.9208 8.70197 27.2181 11.698L27.4129 12.3286C36.7722 9.43862 49.4696 15.1552 52.5923 27.0416L53.2307 26.8739ZM27.2516 12.3371C37.4457 14.3477 45.8042 19.2031 52.6613 27.173L53.1616 26.7426C46.2083 18.6609 37.7188 13.7289 27.3793 11.6895L27.2516 12.3371ZM49.5889 29.5604C45.7164 24.1442 40.3813 20.5477 34.3494 17.9937L34.0921 18.6014C40.0482 21.1234 45.2701 24.6548 49.0521 29.9442L49.5889 29.5604ZM52.1615 34.7186C51.446 32.954 50.7032 31.1179 49.5889 29.5603L49.0521 29.9443C50.113 31.4272 50.8286 33.1877 51.5499 34.9667L52.1615 34.7186ZM52.1573 34.7087L52.1573 34.7086L51.5542 34.9767L51.5542 34.9767L52.1573 34.7087ZM52.1573 34.7087L52.1573 34.7087L51.5542 34.9767L51.5542 34.9768L52.1573 34.7087ZM52.4271 35.3715C52.3384 35.1549 52.2502 34.9374 52.1616 34.7187L51.5499 34.9668C51.6385 35.1852 51.7272 35.4038 51.8164 35.6216L52.4271 35.3715ZM52.6457 37.6193C52.6758 36.9122 52.7168 36.0835 52.4274 35.3722L51.8161 35.6209C52.041 36.174 52.018 36.8479 51.9863 37.5912L52.6457 37.6193ZM52.6457 37.619L52.6457 37.6187L51.9863 37.5918L51.9863 37.5921L52.6457 37.619ZM52.6272 38.1678C52.6299 37.9908 52.6376 37.8088 52.6457 37.6196L51.9863 37.5915C51.9783 37.779 51.9701 37.9702 51.9673 38.1577L52.6272 38.1678ZM16.919 18.0199C32.3932 18.4086 44.0141 25.0994 52.0148 38.3335L52.5796 37.9921C44.4614 24.5636 32.6328 17.7544 16.9355 17.3601L16.919 18.0199ZM21.1675 15.6951C19.5523 15.8884 18.0038 16.3551 16.715 17.4373L17.1395 17.9427C18.2942 16.973 19.7022 16.5352 21.246 16.3505L21.1675 15.6951ZM34.3497 17.9938C30.1679 16.2191 25.8079 15.1391 21.1675 15.6951L21.246 16.3504C25.7316 15.813 29.9711 16.8525 34.0918 18.6013L34.3497 17.9938ZM46.3863 37.2537C40.5383 28.7339 32.253 23.9714 22.1491 22.3792L22.0464 23.0312C31.99 24.5981 40.1072 29.272 45.8422 37.6272L46.3863 37.2537ZM48.6074 42.9608C48.1095 41.0234 47.5311 38.9221 46.3863 37.2538L45.8421 37.6272C46.9114 39.1854 47.4669 41.1746 47.9681 43.1251L48.6074 42.9608ZM47.2171 47.4751C48.7268 46.1397 48.9982 44.4808 48.6073 42.9608L47.9681 43.1251C48.3063 44.4402 48.0782 45.8323 46.7798 46.9808L47.2171 47.4751ZM32.9955 30.5642C39.582 34.3834 44.6892 39.4844 46.6787 47.3093L47.3183 47.1466C45.2713 39.0956 40.0105 33.869 33.3265 29.9932L32.9955 30.5642ZM11.8174 27.0194C19.5221 24.8969 26.4431 26.7654 32.9955 30.5642L33.3265 29.9932C26.6759 26.1375 19.5704 24.199 11.6421 26.3831L11.8174 27.0194ZM14.104 23.3767C12.8822 24.0014 11.7144 24.8447 11.4045 26.6452L12.055 26.7572C12.312 25.2637 13.2502 24.5545 14.4045 23.9643L14.104 23.3767ZM22.1492 22.3792C19.4553 21.9543 16.6713 22.0651 14.1041 23.3766L14.4044 23.9643C16.8052 22.7378 19.4347 22.6192 22.0463 23.0312L22.1492 22.3792ZM41.461 43.2277C36.8976 35.8156 30.0905 31.6183 21.7128 29.8746L21.5783 30.5208C29.8055 32.2331 36.4444 36.3383 40.899 43.5737L41.461 43.2277ZM43.1058 47.4755C42.7331 46.0456 42.2576 44.5204 41.461 43.2276L40.8991 43.5738C41.6414 44.7785 42.0974 46.2233 42.4672 47.6419L43.1058 47.4755ZM40.5677 51.5328C41.2208 51.3332 41.7523 51.15 42.1662 50.9464C42.5812 50.7422 42.9071 50.5037 43.1184 50.1773C43.3327 49.8463 43.4034 49.4651 43.3857 49.0273C43.3683 48.5959 43.2639 48.0857 43.106 47.476L42.4671 47.6415C42.623 48.2434 42.7118 48.6967 42.7263 49.054C42.7404 49.4049 42.6816 49.6375 42.5643 49.8186C42.444 50.0044 42.2363 50.1764 41.8748 50.3542C41.5122 50.5326 41.0245 50.703 40.3748 50.9016L40.5677 51.5328ZM28.8918 37.6654C34.3088 40.798 38.3273 45.1439 40.1549 51.311L40.7877 51.1234C38.9027 44.7625 34.7537 40.2929 29.2222 37.094L28.8918 37.6654ZM11.6574 34.6633C17.7942 33.2088 23.5131 34.5584 28.8919 37.6655L29.2221 37.094C23.7334 33.9235 17.8424 32.5191 11.5052 34.0211L11.6574 34.6633ZM12.7899 30.4105C11.8072 30.7981 11.1174 31.2377 10.8605 31.9378C10.6075 32.6277 10.8206 33.4535 11.2802 34.4773L11.8823 34.2071C11.4239 33.1857 11.3265 32.5839 11.4802 32.1651C11.63 31.7565 12.064 31.4063 13.0321 31.0244L12.7899 30.4105ZM21.7124 29.8745C18.7327 29.2581 15.7144 29.2601 12.7902 30.4104L13.0318 31.0245C15.8046 29.9338 18.6858 29.9223 21.5787 30.5209L21.7124 29.8745ZM12.7918 38.8272L12.7918 38.8271L12.1837 39.0837L12.1837 39.0837L12.7918 38.8272ZM13.8937 40.9825C13.4116 40.4031 13.1144 39.6516 12.795 38.8352L12.1804 39.0756C12.4911 39.87 12.8236 40.7282 13.3864 41.4046L13.8937 40.9825ZM15.1311 41.2024C14.8178 41.1955 14.5365 41.1885 14.3024 41.1492C14.0597 41.1084 13.9442 41.044 13.8951 40.9841L13.385 41.4029C13.5916 41.6546 13.9112 41.7527 14.193 41.8001C14.4835 41.8489 14.8162 41.8556 15.1164 41.8623L15.1311 41.2024ZM15.9666 41.2514C15.7005 41.2147 15.4034 41.2085 15.1311 41.2024L15.1164 41.8623C15.3984 41.8685 15.6552 41.8747 15.8764 41.9052L15.9666 41.2514ZM16.1492 41.275C16.0892 41.2667 16.0239 41.2576 15.958 41.2503L15.8851 41.9063C15.9406 41.9124 15.9969 41.9202 16.0584 41.9288L16.1492 41.275ZM16.3225 41.2975C16.267 41.2914 16.2107 41.2836 16.1492 41.275L16.0584 41.9288C16.1184 41.9371 16.1836 41.9462 16.2496 41.9535L16.3225 41.2975ZM32.9023 51.7023C28.9337 45.7563 23.3691 42.3451 16.3346 41.2991L16.2375 41.9519C23.0944 42.9715 28.4919 46.2832 32.3533 52.0687L32.9023 51.7023ZM33.5323 52.4128C33.547 52.4128 33.5308 52.4174 33.4767 52.3817C33.4257 52.3481 33.3638 52.2937 33.2937 52.2184C33.1535 52.0678 33.0156 51.8724 32.9024 51.7025L32.3532 52.0686C32.4694 52.2429 32.6319 52.4761 32.8107 52.6681C32.9 52.7641 33.0022 52.8594 33.1134 52.9327C33.2216 53.004 33.3657 53.0728 33.5323 53.0728V52.4128ZM36.0394 52.2184C35.1848 52.3147 34.3543 52.408 33.5304 52.4128L33.5342 53.0728C34.3993 53.0678 35.2649 52.9699 36.1133 52.8743L36.0394 52.2184ZM36.0466 52.2177L36.0464 52.2177L36.1062 52.875L36.1063 52.875L36.0466 52.2177ZM36.0381 52.2186L36.0379 52.2186L36.115 52.8741L36.1152 52.874L36.0381 52.2186ZM36.0383 52.2185L36.0381 52.2186L36.1152 52.874L36.1154 52.874L36.0383 52.2185ZM36.0385 52.2185L36.0383 52.2185L36.1154 52.874L36.1156 52.874L36.0385 52.2185ZM37.0443 52.1105C36.7077 52.1431 36.3721 52.1809 36.0401 52.2183L36.114 52.8742C36.4469 52.8366 36.7773 52.7994 37.1077 52.7675L37.0443 52.1105ZM12.2084 38.2876C16.391 36.6414 22.0865 37.7574 26.9904 40.5455C31.8916 43.3321 35.8909 47.7264 36.7513 52.4976L37.4008 52.3805C36.4926 47.3439 32.311 42.8113 27.3166 39.9718C22.325 37.1338 16.4106 35.9244 11.9667 37.6735L12.2084 38.2876ZM12.795 38.8352C12.6669 38.5077 12.5353 38.1709 12.3884 37.8449L11.7867 38.1161C11.9255 38.4242 12.0512 38.7454 12.1804 39.0756L12.795 38.8352ZM15.2303 44.6175C18.9682 49.3618 23.7284 52.1323 29.8189 53.0288L29.9151 52.3758C23.9906 51.5038 19.3818 48.8203 15.7487 44.2091L15.2303 44.6175ZM30.1579 52.5465C28.9683 50.3247 26.3118 48.0555 23.4807 46.4265C22.0593 45.6086 20.5791 44.9434 19.1951 44.5223C17.8168 44.103 16.507 43.9176 15.4378 44.0874L15.5413 44.7392C16.47 44.5918 17.6695 44.7481 19.003 45.1537C20.3308 45.5577 21.765 46.2007 23.1515 46.9985C25.9365 48.6011 28.4707 50.7936 29.5761 52.8581L30.1579 52.5465Z" fill="url(#paint1_linear_22_1173)" mask="url(#path-2-inside-1_22_1173)"/>
<defs>
<linearGradient id="paint0_linear_22_1173" x1="31.997" y1="-15.1397" x2="31.997" y2="56.514" gradientUnits="userSpaceOnUse">
<stop stop-color="#6C6C70"/>
<stop offset="1" stop-color="#6C6C70" stop-opacity="0"/>
</linearGradient>
<linearGradient id="paint1_linear_22_1173" x1="31.997" y1="-52.8188" x2="31.997" y2="45.9874" gradientUnits="userSpaceOnUse">
<stop stop-color="#F0F0F0"/>
<stop offset="1" stop-color="#F0F0F0" stop-opacity="0"/>
</linearGradient>
</defs>
</svg>
