<svg width="64" height="64" viewBox="0 0 64 64" fill="none" xmlns="http://www.w3.org/2000/svg">
<path d="M44.3956 37.8233L44.3957 37.8233C47.3096 36.2337 49.04 34.1212 49.04 32V28.49V28.1259L48.7662 28.3659C45.2068 31.4872 39.0973 33.5225 32 33.5225C24.9025 33.5225 18.7932 31.4956 15.234 28.3661L14.96 28.1252V28.49V32C14.96 34.1212 16.6904 36.2337 19.6043 37.8233L19.6044 37.8233C22.8952 39.6177 27.2987 40.6025 32 40.6025C36.7013 40.6025 41.1048 39.6177 44.3956 37.8233ZM44.3956 47.9483L44.3957 47.9483C47.3096 46.3587 49.04 44.2462 49.04 42.125V38.615V38.2509L48.7662 38.4909C45.2068 41.6122 39.0973 43.6475 32 43.6475C24.9025 43.6475 18.7932 41.6206 15.234 38.4911L14.96 38.2502V38.615V42.125C14.96 44.2462 16.6904 46.3587 19.6043 47.9483L19.6044 47.9483C22.8952 49.7427 27.2987 50.7275 32 50.7275C36.7013 50.7275 41.1048 49.7427 44.3956 47.9483ZM11.915 21.875C11.915 18.6447 14.0843 15.7367 17.7001 13.6275C21.3132 11.5198 26.3456 10.2275 32 10.2275C37.6544 10.2275 42.6868 11.5198 46.2999 13.6275C49.9157 15.7367 52.085 18.6447 52.085 21.875V42.125C52.085 45.3553 49.9157 48.2633 46.2999 50.3725C42.6868 52.4802 37.6544 53.7725 32 53.7725C26.3456 53.7725 21.3132 52.4802 17.7001 50.3725C14.0843 48.2633 11.915 45.3553 11.915 42.125V21.875Z" fill="url(#paint0_linear_22_1197)" stroke="url(#paint1_linear_22_1197)" stroke-width="0.33"/>
<defs>
<linearGradient id="paint0_linear_22_1197" x1="32" y1="-17.858" x2="32" y2="57.9261" gradientUnits="userSpaceOnUse">
<stop stop-color="#6C6C70"/>
<stop offset="1" stop-color="#6C6C70" stop-opacity="0"/>
</linearGradient>
<linearGradient id="paint1_linear_22_1197" x1="32" y1="-57.709" x2="32" y2="46.7928" gradientUnits="userSpaceOnUse">
<stop stop-color="#F0F0F0"/>
<stop offset="1" stop-color="#F0F0F0" stop-opacity="0"/>
</linearGradient>
</defs>
</svg>
