<svg width="64" height="64" viewBox="0 0 64 64" fill="none" xmlns="http://www.w3.org/2000/svg">
<mask id="path-2-inside-1_22_1151" fill="white">
<path fill-rule="evenodd" clip-rule="evenodd" d="M39.8551 14.8229C39.8551 17.3407 36.3373 19.3818 31.9979 19.3818C27.6585 19.3818 24.1407 17.3407 24.1407 14.8229C24.1407 12.3051 27.6585 10.264 31.9979 10.264C36.3373 10.264 39.8551 12.3051 39.8551 14.8229ZM39.8551 49.1733C39.8551 51.6911 36.3373 53.7322 31.9979 53.7322C27.6585 53.7322 24.1407 51.6911 24.1407 49.1733C24.1407 46.6555 27.6585 44.6144 31.9979 44.6144C36.3373 44.6144 39.8551 46.6555 39.8551 49.1733ZM21.0484 25.6924C23.2181 21.9434 23.204 17.883 21.0169 16.6232C18.8299 15.3635 15.298 17.3814 13.1283 21.1304C10.9586 24.8794 10.9727 28.9399 13.1598 30.1996C15.3468 31.4594 18.8787 29.4414 21.0484 25.6924ZM50.8353 33.7979C53.0209 35.0568 53.0338 39.1165 50.8641 42.8655C48.6944 46.6146 45.1637 48.6332 42.9781 47.3743C40.7925 46.1154 40.7797 42.0557 42.9494 38.3066C45.1191 34.5576 48.6497 32.539 50.8353 33.7979ZM21.018 47.3732C23.2051 46.1135 23.2192 42.0531 21.0495 38.3041C18.8798 34.555 15.3479 32.5371 13.1608 33.7968C10.9738 35.0566 10.9597 39.117 13.1294 42.866C15.2991 46.615 18.831 48.633 21.018 47.3732ZM50.8659 21.133C53.0356 24.882 53.0228 28.9417 50.8372 30.2006C48.6516 31.4595 45.1209 29.4409 42.9512 25.6918C40.7815 21.9428 40.7944 17.8831 42.98 16.6242C45.1656 15.3653 48.6962 17.3839 50.8659 21.133Z"/>
</mask>
<path fill-rule="evenodd" clip-rule="evenodd" d="M39.8551 14.8229C39.8551 17.3407 36.3373 19.3818 31.9979 19.3818C27.6585 19.3818 24.1407 17.3407 24.1407 14.8229C24.1407 12.3051 27.6585 10.264 31.9979 10.264C36.3373 10.264 39.8551 12.3051 39.8551 14.8229ZM39.8551 49.1733C39.8551 51.6911 36.3373 53.7322 31.9979 53.7322C27.6585 53.7322 24.1407 51.6911 24.1407 49.1733C24.1407 46.6555 27.6585 44.6144 31.9979 44.6144C36.3373 44.6144 39.8551 46.6555 39.8551 49.1733ZM21.0484 25.6924C23.2181 21.9434 23.204 17.883 21.0169 16.6232C18.8299 15.3635 15.298 17.3814 13.1283 21.1304C10.9586 24.8794 10.9727 28.9399 13.1598 30.1996C15.3468 31.4594 18.8787 29.4414 21.0484 25.6924ZM50.8353 33.7979C53.0209 35.0568 53.0338 39.1165 50.8641 42.8655C48.6944 46.6146 45.1637 48.6332 42.9781 47.3743C40.7925 46.1154 40.7797 42.0557 42.9494 38.3066C45.1191 34.5576 48.6497 32.539 50.8353 33.7979ZM21.018 47.3732C23.2051 46.1135 23.2192 42.0531 21.0495 38.3041C18.8798 34.555 15.3479 32.5371 13.1608 33.7968C10.9738 35.0566 10.9597 39.117 13.1294 42.866C15.2991 46.615 18.831 48.633 21.018 47.3732ZM50.8659 21.133C53.0356 24.882 53.0228 28.9417 50.8372 30.2006C48.6516 31.4595 45.1209 29.4409 42.9512 25.6918C40.7815 21.9428 40.7944 17.8831 42.98 16.6242C45.1656 15.3653 48.6962 17.3839 50.8659 21.133Z" fill="url(#paint0_linear_22_1151)"/>
<path d="M21.0169 16.6232L21.1816 16.3372L21.0169 16.6232ZM21.0484 25.6924L20.7628 25.5271L21.0484 25.6924ZM13.1283 21.1304L13.4139 21.2957V21.2957L13.1283 21.1304ZM13.1598 30.1996L12.995 30.4856L13.1598 30.1996ZM42.9781 47.3743L43.1429 47.0883H43.1428L42.9781 47.3743ZM42.9494 38.3066L43.235 38.4719L42.9494 38.3066ZM21.0495 38.3041L21.3351 38.1388L21.0495 38.3041ZM21.018 47.3732L20.8533 47.0873H20.8533L21.018 47.3732ZM13.1608 33.7968L12.9961 33.5109L13.1608 33.7968ZM13.1294 42.866L12.8438 43.0313L13.1294 42.866ZM50.8372 30.2006L51.0019 30.4866L50.8372 30.2006ZM42.98 16.6242L43.1447 16.9102L42.98 16.6242ZM31.9979 19.7118C34.2152 19.7118 36.2388 19.191 37.7194 18.332C39.1915 17.4778 40.1851 16.2488 40.1851 14.8229H39.5251C39.5251 15.9148 38.7597 16.9653 37.3881 17.7611C36.025 18.552 34.12 19.0518 31.9979 19.0518V19.7118ZM23.8107 14.8229C23.8107 16.2488 24.8042 17.4778 26.2764 18.332C27.757 19.191 29.7806 19.7118 31.9979 19.7118V19.0518C29.8758 19.0518 27.9708 18.552 26.6076 17.7611C25.236 16.9653 24.4707 15.9148 24.4707 14.8229H23.8107ZM31.9979 9.93404C29.7806 9.93404 27.757 10.4548 26.2764 11.3139C24.8042 12.168 23.8107 13.397 23.8107 14.8229H24.4707C24.4707 13.731 25.236 12.6806 26.6076 11.8847C27.9708 11.0938 29.8758 10.594 31.9979 10.594V9.93404ZM40.1851 14.8229C40.1851 13.397 39.1915 12.168 37.7194 11.3139C36.2388 10.4548 34.2152 9.93404 31.9979 9.93404V10.594C34.12 10.594 36.025 11.0938 37.3881 11.8847C38.7597 12.6806 39.5251 13.731 39.5251 14.8229H40.1851ZM31.9979 54.0622C34.2152 54.0622 36.2388 53.5414 37.7194 52.6824C39.1915 51.8282 40.1851 50.5992 40.1851 49.1733H39.5251C39.5251 50.2652 38.7597 51.3157 37.3881 52.1115C36.025 52.9024 34.12 53.4022 31.9979 53.4022V54.0622ZM23.8107 49.1733C23.8107 50.5992 24.8042 51.8282 26.2764 52.6824C27.757 53.5414 29.7806 54.0622 31.9979 54.0622V53.4022C29.8758 53.4022 27.9708 52.9024 26.6076 52.1115C25.236 51.3157 24.4707 50.2652 24.4707 49.1733H23.8107ZM31.9979 44.2844C29.7806 44.2844 27.757 44.8052 26.2764 45.6643C24.8042 46.5184 23.8107 47.7474 23.8107 49.1733H24.4707C24.4707 48.0814 25.236 47.0309 26.6076 46.2351C27.9708 45.4442 29.8758 44.9444 31.9979 44.9444V44.2844ZM40.1851 49.1733C40.1851 47.7474 39.1915 46.5184 37.7194 45.6643C36.2388 44.8052 34.2152 44.2844 31.9979 44.2844V44.9444C34.12 44.9444 36.025 45.4442 37.3881 46.2351C38.7597 47.0309 39.5251 48.0814 39.5251 49.1733H40.1851ZM20.8522 16.9092C21.8015 17.4559 22.331 18.6431 22.3364 20.2255C22.3419 21.7985 21.8237 23.694 20.7628 25.5271L21.334 25.8577C22.4428 23.9418 23.0024 21.9326 22.9964 20.2232C22.9906 18.5232 22.4194 17.0502 21.1816 16.3372L20.8522 16.9092ZM13.4139 21.2957C14.4748 19.4626 15.8612 18.067 17.2298 17.2851C18.6067 16.4984 19.9026 16.3622 20.8522 16.9092L21.1816 16.3372C19.9442 15.6245 18.3807 15.8674 16.9024 16.712C15.4158 17.5613 13.9515 19.0492 12.8427 20.9651L13.4139 21.2957ZM13.3245 29.9137C12.3752 29.3669 11.8457 28.1797 11.8402 26.5973C11.8348 25.0243 12.353 23.1288 13.4139 21.2957L12.8427 20.9651C11.7339 22.881 11.1743 24.8903 11.1802 26.5996C11.1861 28.2996 11.7573 29.7726 12.995 30.4856L13.3245 29.9137ZM20.7628 25.5271C19.7019 27.3602 18.3154 28.7558 16.9469 29.5378C15.57 30.3244 14.2741 30.4606 13.3245 29.9137L12.995 30.4856C14.2325 31.1983 15.796 30.9554 17.2743 30.1108C18.7608 29.2615 20.2252 27.7736 21.334 25.8577L20.7628 25.5271ZM51.1497 43.0308C52.2585 41.1149 52.8184 39.1059 52.8129 37.3969C52.8075 35.6972 52.2372 34.2245 51 33.5119L50.6706 34.0838C51.6191 34.6302 52.1479 35.8168 52.1529 37.399C52.1579 38.9717 51.6394 40.8671 50.5785 42.7002L51.1497 43.0308ZM42.8134 47.6602C44.0503 48.3727 45.6132 48.1292 47.0909 47.2844C48.5769 46.4347 50.0409 44.9467 51.1497 43.0308L50.5785 42.7002C49.5176 44.5333 48.1314 45.9292 46.7633 46.7114C45.3868 47.4984 44.0916 47.6348 43.1429 47.0883L42.8134 47.6602ZM42.6637 38.1414C41.5549 40.0572 40.9951 42.0662 41.0005 43.7753C41.0059 45.475 41.5763 46.9477 42.8134 47.6602L43.1428 47.0883C42.1944 46.542 41.6655 45.3554 41.6605 43.7732C41.6555 42.2004 42.1741 40.3051 43.235 38.4719L42.6637 38.1414ZM51 33.5119C49.7632 32.7995 48.2003 33.0429 46.7226 33.8878C45.2366 34.7374 43.7726 36.2254 42.6637 38.1414L43.235 38.4719C44.2959 36.6388 45.682 35.243 47.0502 34.4608C48.4266 33.6738 49.7218 33.5374 50.6706 34.0838L51 33.5119ZM20.7639 38.4694C21.8247 40.3025 22.343 42.198 22.3375 43.771C22.3321 45.3534 21.8026 46.5405 20.8533 47.0873L21.1827 47.6592C22.4205 46.9462 22.9916 45.4733 22.9975 43.7733C23.0035 42.0639 22.4439 40.0547 21.3351 38.1388L20.7639 38.4694ZM13.3256 34.0828C14.2752 33.5358 15.5711 33.672 16.948 34.4587C18.3165 35.2406 19.703 36.6363 20.7639 38.4694L21.3351 38.1388C20.2263 36.2228 18.7619 34.735 17.2754 33.8856C15.7971 33.041 14.2336 32.7981 12.9961 33.5109L13.3256 34.0828ZM13.415 42.7007C12.3541 40.8676 11.8359 38.9721 11.8413 37.3991C11.8468 35.8167 12.3763 34.6296 13.3256 34.0828L12.9961 33.5109C11.7583 34.2239 11.1872 35.6968 11.1813 37.3968C11.1754 39.1062 11.735 41.1154 12.8438 43.0313L13.415 42.7007ZM20.8533 47.0873C19.9037 47.6343 18.6078 47.4981 17.2309 46.7114C15.8623 45.9295 14.4759 44.5338 13.415 42.7007L12.8438 43.0313C13.9526 44.9473 15.4169 46.4351 16.9035 47.2845C18.3818 48.1291 19.9453 48.372 21.1827 47.6592L20.8533 47.0873ZM51.0019 30.4866C52.239 29.774 52.8094 28.3013 52.8148 26.6016C52.8202 24.8926 52.2604 22.8836 51.1516 20.9677L50.5803 21.2983C51.6412 23.1314 52.1598 25.0268 52.1548 26.5995C52.1498 28.1817 51.6209 29.3683 50.6725 29.9146L51.0019 30.4866ZM42.6656 25.8571C43.7744 27.7731 45.2384 29.261 46.7244 30.1107C48.2022 30.9556 49.7651 31.199 51.0019 30.4866L50.6725 29.9146C49.7237 30.4611 48.4285 30.3247 47.052 29.5377C45.6839 28.7555 44.2977 27.3597 43.2368 25.5265L42.6656 25.8571ZM42.8153 16.3382C41.5781 17.0508 41.0078 18.5235 41.0024 20.2232C40.9969 21.9322 41.5568 23.9412 42.6656 25.8571L43.2368 25.5265C42.1759 23.6934 41.6574 21.798 41.6624 20.2253C41.6674 18.6431 42.1963 17.4565 43.1447 16.9102L42.8153 16.3382ZM51.1516 20.9677C50.0428 19.0517 48.5788 17.5638 47.0927 16.7141C45.615 15.8692 44.0521 15.6258 42.8153 16.3382L43.1447 16.9102C44.0935 16.3637 45.3887 16.5001 46.7651 17.2871C48.1333 18.0693 49.5194 19.4651 50.5803 21.2983L51.1516 20.9677Z" fill="url(#paint1_linear_22_1151)" mask="url(#path-2-inside-1_22_1151)"/>
<defs>
<linearGradient id="paint0_linear_22_1151" x1="31.9975" y1="-17.3975" x2="31.9975" y2="57.6838" gradientUnits="userSpaceOnUse">
<stop stop-color="#6C6C70"/>
<stop offset="1" stop-color="#6C6C70" stop-opacity="0"/>
</linearGradient>
<linearGradient id="paint1_linear_22_1151" x1="31.9975" y1="-73" x2="31.9975" y2="43" gradientUnits="userSpaceOnUse">
<stop stop-color="#F0F0F0"/>
<stop offset="1" stop-color="#F0F0F0" stop-opacity="0"/>
</linearGradient>
</defs>
</svg>
