<svg width="64" height="64" viewBox="0 0 64 64" fill="none" xmlns="http://www.w3.org/2000/svg">
<path d="M42.024 47.4766C43.522 46.8996 44.9619 46.1953 46.3255 45.3786L46.5358 45.2527L46.3391 45.1063C45.9734 44.8341 45.6117 44.5494 45.2579 44.2564L45.1777 44.1899L45.0834 44.2343C36.6739 48.1901 27.4283 48.1905 18.9157 44.2339L18.8211 44.19L18.7412 44.257C18.3921 44.5495 18.0307 44.8339 17.6614 45.1058L17.4626 45.2521L17.6745 45.3787C19.0339 46.1913 20.4699 46.8955 21.9678 47.4725C21.1946 48.9926 20.3058 50.4389 19.3148 51.8043C15.0953 50.4863 10.8043 48.4826 6.37737 45.2078C5.47746 35.4776 7.31216 25.6104 14.0415 15.4876C17.3484 13.9504 20.8847 12.8273 24.58 12.1815C25.031 12.9948 25.5512 14.0522 25.9059 14.8986L25.9553 15.0167L26.0819 14.9974C29.9917 14.4022 33.9384 14.4021 37.9225 14.9975L38.0487 15.0164L38.098 14.8987C38.453 14.0515 38.9619 12.9943 39.408 12.1816C43.0993 12.8273 46.6315 13.9464 49.9384 15.4795C55.7747 24.1563 58.6776 33.934 57.6225 45.2078C53.1954 48.4867 48.9003 50.4904 44.6766 51.8085C43.6825 50.4434 42.7971 48.9936 42.024 47.4766ZM18.523 33.9843C18.523 36.957 20.6844 39.4327 23.3619 39.4327C26.0847 39.4327 28.2043 36.9568 28.2008 33.9854C28.2462 31.0058 26.0829 28.5317 23.3619 28.5317C20.6383 28.5317 18.523 31.0128 18.523 33.9843ZM35.799 33.9843C35.799 36.957 37.9605 39.4327 40.6379 39.4327C43.3609 39.4327 45.4762 36.9566 45.4769 33.9856C45.5224 31.0059 43.3589 28.5317 40.6379 28.5317C37.9143 28.5317 35.799 31.0128 35.799 33.9843Z" fill="url(#paint0_linear_22_1221)" stroke="url(#paint1_linear_22_1221)" stroke-width="0.328125"/>
<defs>
<linearGradient id="paint0_linear_22_1221" x1="32" y1="-13.4545" x2="32" y2="55.6364" gradientUnits="userSpaceOnUse">
<stop stop-color="#6C6C70"/>
<stop offset="1" stop-color="#6C6C70" stop-opacity="0"/>
</linearGradient>
<linearGradient id="paint1_linear_22_1221" x1="32" y1="-49.786" x2="32" y2="45.4863" gradientUnits="userSpaceOnUse">
<stop stop-color="#F0F0F0"/>
<stop offset="1" stop-color="#F0F0F0" stop-opacity="0"/>
</linearGradient>
</defs>
</svg>
