<svg width="64" height="64" viewBox="0 0 64 64" fill="none" xmlns="http://www.w3.org/2000/svg">
<path d="M49.8373 37.0332L49.8373 37.0332L49.8405 37.0312C51.2298 36.1149 51.8986 34.3023 51.8037 32.0934V32.0485V32C51.8037 20.6262 42.9042 11.3893 31.9919 11.3893C21.0795 11.3893 12.18 20.6262 12.18 32C12.18 35.3694 12.9892 38.6897 14.5123 41.6681L14.6466 41.9309L14.8001 41.6788L26.1799 22.9807C26.1803 22.9801 26.1807 22.9796 26.181 22.979C26.8527 21.934 27.5252 21.3924 28.1292 21.1423C28.7318 20.8927 29.282 20.9268 29.7236 21.0627C31.0355 21.4665 31.7798 22.7722 31.8269 25.1217V35.4399V36.0285L32.1328 35.5257L37.2335 27.1439L37.2345 27.1422C37.6365 26.4629 38.3704 25.2336 39.356 24.282C40.3431 23.3289 41.546 22.6877 42.901 23.0979L42.9036 23.0986C44.4962 23.5524 45.4758 25.3407 45.4758 27.9302V33.405C45.4758 35.2231 46.0502 36.6027 47.0656 37.2277L47.0656 37.2278L47.0696 37.2301C47.8913 37.7043 48.9497 37.5896 49.8373 37.0332ZM55.8187 32H55.8185L55.8189 32.0081C56.0055 35.7871 54.5614 38.9243 51.8791 40.7281C49.7055 42.1031 47.0812 42.2389 45.0165 41.015L45.0145 41.0139C42.7191 39.6952 41.3663 36.9504 41.3663 33.5019V28.7539V28.3482L41.0832 28.6387C40.9757 28.749 40.8853 28.8828 40.8014 29.0182C40.767 29.0735 40.7346 29.1277 40.7022 29.1818C40.6515 29.2663 40.601 29.3507 40.5435 29.4392L40.5434 29.4391L40.5404 29.4441L34.9211 38.7934C34.921 38.7937 34.9209 38.7939 34.9207 38.7941C33.9627 40.352 33.0508 41.1725 32.2497 41.5661C31.4527 41.9576 30.7517 41.9333 30.1955 41.7736C29.6412 41.6143 29.0272 41.2504 28.5488 40.4767C28.0682 39.6995 27.7174 38.4972 27.7174 36.6512V28.8508V28.2617L27.4114 28.7651L17.1629 45.6255L17.1006 45.728L17.1789 45.8189C20.7974 50.0194 26.0371 52.6592 31.8974 52.6592C36.9002 52.6592 41.7585 50.6554 45.378 47.1377L45.378 47.1377L45.3811 47.1346L45.4224 47.0921L45.4251 47.0894C46.2569 46.3292 47.5172 46.378 48.2557 47.2247L48.2556 47.2248L48.2588 47.2282C49.0474 48.0822 49.0045 49.3851 48.1706 50.1956C43.7612 54.4784 38.0403 56.835 31.9919 56.835C18.8655 56.835 8.165 45.6751 8.165 32C8.165 18.2766 18.8653 7.165 31.9919 7.165C45.0713 7.165 55.7718 18.2769 55.8187 31.9037V31.9515V32Z" fill="url(#paint0_linear_22_1209)" stroke="url(#paint1_linear_22_1209)" stroke-width="0.33"/>
<defs>
<linearGradient id="paint0_linear_22_1209" x1="32" y1="-24.8182" x2="32" y2="61.5455" gradientUnits="userSpaceOnUse">
<stop stop-color="#6C6C70"/>
<stop offset="1" stop-color="#6C6C70" stop-opacity="0"/>
</linearGradient>
<linearGradient id="paint1_linear_22_1209" x1="32" y1="-96" x2="32" y2="42.5" gradientUnits="userSpaceOnUse">
<stop stop-color="#F0F0F0"/>
<stop offset="1" stop-color="#F0F0F0" stop-opacity="0"/>
</linearGradient>
</defs>
</svg>
