<svg width="35" height="28" viewBox="0 0 35 28" fill="none" xmlns="http://www.w3.org/2000/svg">
<path d="M24.3212 24.0575C25.3127 23.6696 26.2663 23.1984 27.1701 22.6537L27.3788 22.5279L27.1838 22.3819C26.9384 22.1981 26.6956 22.0058 26.4582 21.8079L26.3777 21.7408L26.283 21.7857C20.6375 24.4581 14.4314 24.4585 8.71623 21.7853L8.62117 21.7409L8.54095 21.8085C8.30682 22.006 8.0645 22.1979 7.81682 22.3814L7.61975 22.5274L7.82992 22.6538C8.73097 23.1958 9.68191 23.6668 10.6733 24.0548C10.1663 25.0514 9.58602 26.0008 8.94086 26.8987C6.12419 26.0093 3.25999 24.6609 0.305279 22.4647C-0.294007 15.8965 0.939058 9.237 5.44918 2.40368C7.65548 1.37308 10.0135 0.618488 12.4771 0.18179C12.7755 0.726447 13.1155 1.42363 13.3486 1.98347L13.3979 2.10203L13.5249 2.08258C16.151 1.68024 18.8019 1.68017 21.4782 2.08265L21.6048 2.10169L21.654 1.98348C21.8874 1.42297 22.2202 0.725972 22.515 0.181899C24.9759 0.618566 27.3312 1.37045 29.5374 2.39834C33.4499 8.25704 35.397 14.8565 34.6947 22.4647C31.7398 24.6637 28.8729 26.0122 26.0533 26.9016C25.4062 26.0039 24.8281 25.0523 24.3212 24.0575ZM8.37528 14.8907C8.37528 16.9261 9.84723 18.6341 11.6859 18.6341C13.5552 18.6341 14.9987 16.926 14.9965 14.8919C15.0272 12.8509 13.5534 11.1446 11.6859 11.1446C9.81585 11.1446 8.37528 12.8565 8.37528 14.8907ZM20.0034 14.8907C20.0034 16.9261 21.4753 18.6341 23.314 18.6341C25.1835 18.6341 26.624 16.9258 26.6246 14.892C26.6554 12.851 25.1815 11.1446 23.314 11.1446C21.4439 11.1446 20.0034 12.8565 20.0034 14.8907Z" fill="url(#paint0_linear_22_965)" stroke="url(#paint1_linear_22_965)" stroke-width="0.328125"/>
<defs>
<linearGradient id="paint0_linear_22_965" x1="17.5" y1="-9.5842" x2="17.5" y2="33.0721" gradientUnits="userSpaceOnUse">
<stop stop-color="#6C6C70"/>
<stop offset="1" stop-color="#6C6C70" stop-opacity="0"/>
</linearGradient>
<linearGradient id="paint1_linear_22_965" x1="17.5" y1="-41.8498" x2="17.5" y2="22.6814" gradientUnits="userSpaceOnUse">
<stop stop-color="#F0F0F0"/>
<stop offset="1" stop-color="#F0F0F0" stop-opacity="0"/>
</linearGradient>
</defs>
</svg>
