<svg width="119" height="32" viewBox="0 0 119 32" fill="none" xmlns="http://www.w3.org/2000/svg">
<path d="M28.48 10.62C27.9711 9.45637 27.2976 8.37194 26.48 7.40001C25.2715 5.92035 23.7633 4.7134 22.0547 3.85861C20.3461 3.00383 18.4758 2.52058 16.567 2.44067C14.6582 2.36076 12.7541 2.686 10.98 3.395C9.20594 4.10399 7.60214 5.18066 6.27417 6.55414C4.94619 7.92761 3.92414 9.56676 3.27529 11.3637C2.62644 13.1606 2.36549 15.0746 2.50963 16.9796C2.65378 18.8847 3.19973 20.7376 4.11157 22.4164C5.02341 24.0953 6.28046 25.562 7.79998 26.72C8.77498 27.4779 9.85233 28.094 11 28.55C12.609 29.2094 14.3311 29.549 16.07 29.55C19.6594 29.5421 23.0992 28.1113 25.6355 25.5713C28.1717 23.0313 29.5974 19.5894 29.6 16C29.6026 14.1485 29.2213 12.3166 28.48 10.62ZM16.06 5.19C17.6216 5.18984 19.1643 5.53114 20.58 6.19C20.2348 6.33917 19.8718 6.44336 19.5 6.50001C18.2766 6.6771 17.1433 7.24508 16.2692 8.11918C15.3951 8.99327 14.8271 10.1266 14.65 11.35C14.5723 12.0361 14.2602 12.6744 13.7665 13.1572C13.2728 13.64 12.6277 13.9376 11.94 14C10.7166 14.1771 9.58324 14.7451 8.70915 15.6192C7.83506 16.4933 7.26707 17.6266 7.08998 18.85C7.03002 19.5024 6.75167 20.1155 6.29998 20.59C5.52063 18.9433 5.17053 17.1261 5.28225 15.3077C5.39397 13.4893 5.96388 11.7287 6.93895 10.1897C7.91401 8.6508 9.26255 7.38352 10.8591 6.50585C12.4556 5.62818 14.2482 5.16865 16.07 5.17L16.06 5.19ZM7.78998 23C7.90998 22.89 8.02998 22.79 8.14998 22.67C9.03963 21.8075 9.61069 20.6689 9.76998 19.44C9.83456 18.7492 10.143 18.104 10.64 17.62C11.1183 17.1222 11.762 16.8163 12.45 16.76C13.6734 16.5829 14.8067 16.0149 15.6808 15.1408C16.5549 14.2667 17.1229 13.1334 17.3 11.91C17.3433 11.1875 17.6533 10.5068 18.17 10C18.6601 9.51186 19.3099 9.21711 20 9.17C21.1239 9.01537 22.1721 8.51572 23 7.74001C23.9427 8.52208 24.7413 9.4629 25.36 10.52C25.322 10.5713 25.2784 10.6183 25.23 10.66C24.7527 11.1622 24.1098 11.4748 23.42 11.54C22.1953 11.714 21.0603 12.281 20.1856 13.1556C19.311 14.0303 18.744 15.1653 18.57 16.39C18.4995 17.0784 18.1932 17.7213 17.703 18.2097C17.2127 18.6982 16.5687 19.0021 15.88 19.07C14.653 19.2457 13.5155 19.8126 12.6363 20.6863C11.7572 21.5601 11.1833 22.6941 11 23.92C10.9462 24.4087 10.7783 24.878 10.51 25.29C9.48397 24.6808 8.56507 23.9072 7.78998 23ZM16.06 26.86C15.0453 26.8611 14.0354 26.7197 13.06 26.44C13.3937 25.818 13.6106 25.1401 13.7 24.44C13.7701 23.7531 14.075 23.1114 14.5632 22.6232C15.0514 22.135 15.6931 21.8301 16.38 21.76C17.6052 21.5849 18.7408 21.0178 19.6169 20.1435C20.4929 19.2693 21.0624 18.1348 21.24 16.91C21.3101 16.2231 21.615 15.5814 22.1032 15.0932C22.5914 14.605 23.2331 14.3001 23.92 14.23C24.842 14.1101 25.7208 13.7668 26.48 13.23C26.9016 14.8279 26.9515 16.5011 26.626 18.1213C26.3005 19.7415 25.6081 21.2657 24.6021 22.5768C23.5961 23.8878 22.3032 24.9511 20.8224 25.6849C19.3417 26.4187 17.7126 26.8036 16.06 26.81V26.86Z" fill="#F0F0F0"/>
<path d="M44.8568 14.3792H42.0199C41.9681 14.0121 41.8623 13.6861 41.7025 13.4011C41.5427 13.1118 41.3376 12.8657 41.0872 12.6628C40.8367 12.4598 40.5474 12.3044 40.2193 12.1964C39.8954 12.0885 39.5435 12.0345 39.1635 12.0345C38.477 12.0345 37.8789 12.2051 37.3694 12.5462C36.8599 12.883 36.4648 13.3752 36.1841 14.0229C35.9035 14.6663 35.7631 15.4479 35.7631 16.3676C35.7631 17.3132 35.9035 18.1077 36.1841 18.7511C36.4691 19.3945 36.8664 19.8803 37.3759 20.2084C37.8854 20.5366 38.4748 20.7007 39.1441 20.7007C39.5198 20.7007 39.8674 20.651 40.1869 20.5517C40.5107 20.4524 40.7979 20.3077 41.0483 20.1177C41.2988 19.9234 41.506 19.6881 41.6701 19.4118C41.8385 19.1354 41.9551 18.8202 42.0199 18.4661L44.8568 18.4791C44.7834 19.0879 44.5999 19.6752 44.3062 20.2408C44.0169 20.8021 43.6262 21.3052 43.1339 21.7499C42.646 22.1904 42.063 22.5401 41.3851 22.7992C40.7115 23.054 39.9494 23.1814 39.0988 23.1814C37.9156 23.1814 36.8577 22.9136 35.925 22.3782C34.9967 21.8428 34.2626 21.0677 33.7229 20.053C33.1874 19.0383 32.9197 17.8098 32.9197 16.3676C32.9197 14.9211 33.1918 13.6904 33.7358 12.6757C34.2799 11.661 35.0183 10.8881 35.951 10.357C36.8836 9.82153 37.9329 9.55381 39.0988 9.55381C39.8674 9.55381 40.5798 9.66176 41.2362 9.87766C41.8968 10.0936 42.4819 10.4088 42.9914 10.8233C43.5009 11.2335 43.9155 11.7366 44.235 12.3324C44.5588 12.9283 44.7661 13.6106 44.8568 14.3792ZM49.1058 23.1878C48.4711 23.1878 47.9054 23.0777 47.4088 22.8575C46.9123 22.633 46.5193 22.3026 46.23 21.8665C45.945 21.4261 45.8025 20.8777 45.8025 20.2214C45.8025 19.6687 45.904 19.2045 46.107 18.8288C46.3099 18.4532 46.5863 18.1509 46.936 17.9221C47.2858 17.6932 47.683 17.5205 48.1278 17.4039C48.5768 17.2873 49.0475 17.2053 49.5398 17.1578C50.1184 17.0973 50.5847 17.0412 50.9388 16.9894C51.2929 16.9332 51.5498 16.8512 51.7095 16.7432C51.8693 16.6353 51.9492 16.4755 51.9492 16.264V16.2251C51.9492 15.8149 51.8197 15.4975 51.5606 15.273C51.3058 15.0484 50.9431 14.9362 50.4724 14.9362C49.9759 14.9362 49.5808 15.0463 49.2872 15.2665C48.9935 15.4824 48.7992 15.7544 48.7042 16.0826L46.1523 15.8753C46.2818 15.2708 46.5366 14.7483 46.9166 14.3079C47.2966 13.8632 47.7867 13.522 48.3869 13.2845C48.9914 13.0427 49.6909 12.9218 50.4854 12.9218C51.0381 12.9218 51.567 12.9866 52.0723 13.1161C52.5818 13.2457 53.033 13.4465 53.4259 13.7185C53.8232 13.9905 54.1362 14.3403 54.3651 14.7678C54.594 15.1909 54.7084 15.6983 54.7084 16.2899V23H52.0917V21.6204H52.014C51.8542 21.9313 51.6405 22.2055 51.3727 22.443C51.105 22.6762 50.7833 22.8597 50.4077 22.9935C50.032 23.1231 49.5981 23.1878 49.1058 23.1878ZM49.896 21.2836C50.3019 21.2836 50.6603 21.2037 50.9712 21.044C51.2821 20.8799 51.526 20.6597 51.7031 20.3833C51.8801 20.107 51.9686 19.7939 51.9686 19.4441V18.3884C51.8823 18.4445 51.7635 18.4963 51.6124 18.5438C51.4656 18.587 51.2993 18.628 51.1137 18.6669C50.928 18.7015 50.7423 18.7338 50.5566 18.7641C50.371 18.79 50.2026 18.8137 50.0514 18.8353C49.7276 18.8828 49.4448 18.9584 49.203 19.062C48.9611 19.1656 48.7733 19.306 48.6395 19.483C48.5056 19.6557 48.4387 19.8716 48.4387 20.1307C48.4387 20.5064 48.5747 20.7935 48.8467 20.9921C49.1231 21.1864 49.4728 21.2836 49.896 21.2836ZM64.5794 15.8883L62.0534 16.0437C62.0102 15.8278 61.9174 15.6335 61.7749 15.4608C61.6324 15.2838 61.4446 15.1434 61.2114 15.0398C60.9825 14.9319 60.7083 14.8779 60.3888 14.8779C59.9613 14.8779 59.6008 14.9686 59.3072 15.1499C59.0135 15.327 58.8667 15.5644 58.8667 15.8624C58.8667 16.0999 58.9617 16.3007 59.1517 16.4647C59.3417 16.6288 59.6677 16.7605 60.1297 16.8598L61.9303 17.2225C62.8976 17.4212 63.6187 17.7407 64.0936 18.1811C64.5686 18.6216 64.8061 19.2002 64.8061 19.917C64.8061 20.569 64.614 21.1411 64.2297 21.6334C63.8497 22.1256 63.3272 22.5099 62.6622 22.7863C62.0016 23.0583 61.2395 23.1943 60.3759 23.1943C59.0589 23.1943 58.0096 22.9201 57.228 22.3717C56.4508 21.819 55.9953 21.0677 55.8614 20.1177L58.5753 19.9753C58.6573 20.3768 58.8559 20.6834 59.1711 20.895C59.4864 21.1022 59.8901 21.2059 60.3823 21.2059C60.8659 21.2059 61.2546 21.113 61.5482 20.9274C61.8461 20.7374 61.9973 20.4934 62.0016 20.1955C61.9973 19.945 61.8915 19.7399 61.6842 19.5802C61.4769 19.4161 61.1574 19.2909 60.7256 19.2045L59.0027 18.8612C58.0312 18.6669 57.3079 18.3301 56.833 17.8508C56.3623 17.3715 56.127 16.7605 56.127 16.0178C56.127 15.3788 56.2997 14.8282 56.6451 14.3662C56.9949 13.9042 57.485 13.5479 58.1154 13.2975C58.7501 13.0471 59.4928 12.9218 60.3435 12.9218C61.6 12.9218 62.5888 13.1874 63.3099 13.7185C64.0353 14.2496 64.4585 14.9729 64.5794 15.8883ZM68.7556 17.2485V23H65.9964V9.73517H68.6778V14.8066H68.7944C69.019 14.2194 69.3817 13.7595 69.8826 13.427C70.3834 13.0902 71.0117 12.9218 71.7673 12.9218C72.4582 12.9218 73.0606 13.073 73.5744 13.3752C74.0926 13.6732 74.4942 14.1028 74.7791 14.6641C75.0684 15.2212 75.2109 15.8883 75.2066 16.6655V23H72.4474V17.1578C72.4517 16.5446 72.2963 16.0675 71.9811 15.7264C71.6702 15.3852 71.2341 15.2147 70.6727 15.2147C70.2971 15.2147 69.9646 15.2946 69.6753 15.4543C69.3903 15.6141 69.1658 15.8473 69.0017 16.1538C68.8419 16.4561 68.7599 16.821 68.7556 17.2485ZM76.8827 23V9.73517H85.6654V12.0474H79.6872V15.2082H85.0825V17.5205H79.6872V23H76.8827ZM89.712 9.73517V23H86.9529V9.73517H89.712ZM95.8702 23.1943C94.8641 23.1943 93.994 22.9806 93.2599 22.5531C92.5302 22.1213 91.9667 21.5211 91.5694 20.7525C91.1722 19.9796 90.9736 19.0836 90.9736 18.0646C90.9736 17.0369 91.1722 16.1387 91.5694 15.3701C91.9667 14.5972 92.5302 13.997 93.2599 13.5695C93.994 13.1377 94.8641 12.9218 95.8702 12.9218C96.8762 12.9218 97.7442 13.1377 98.4739 13.5695C99.208 13.997 99.7736 14.5972 100.171 15.3701C100.568 16.1387 100.767 17.0369 100.767 18.0646C100.767 19.0836 100.568 19.9796 100.171 20.7525C99.7736 21.5211 99.208 22.1213 98.4739 22.5531C97.7442 22.9806 96.8762 23.1943 95.8702 23.1943ZM95.8831 21.0569C96.3408 21.0569 96.723 20.9274 97.0295 20.6683C97.3361 20.4049 97.5671 20.0465 97.7226 19.5931C97.8823 19.1397 97.9622 18.6237 97.9622 18.0451C97.9622 17.4665 97.8823 16.9505 97.7226 16.4971C97.5671 16.0437 97.3361 15.6853 97.0295 15.4219C96.723 15.1586 96.3408 15.0269 95.8831 15.0269C95.4211 15.0269 95.0325 15.1586 94.7173 15.4219C94.4064 15.6853 94.171 16.0437 94.0113 16.4971C93.8558 16.9505 93.7781 17.4665 93.7781 18.0451C93.7781 18.6237 93.8558 19.1397 94.0113 19.5931C94.171 20.0465 94.4064 20.4049 94.7173 20.6683C95.0325 20.9274 95.4211 21.0569 95.8831 21.0569ZM103.727 23L101.019 13.0514H103.811L105.353 19.7356H105.443L107.05 13.0514H109.789L111.421 19.6967H111.506L113.021 13.0514H115.806L113.106 23H110.184L108.474 16.7432H108.351L106.641 23H103.727Z" fill="#F0F0F0"/>
</svg>
