<svg width="111" height="46" viewBox="0 0 111 46" fill="none" xmlns="http://www.w3.org/2000/svg">
<path d="M34.6443 22.3115C40.1151 22.3115 44.55 17.8765 44.55 12.4057C44.55 6.93496 40.1151 2.5 34.6443 2.5C29.1735 2.5 24.7385 6.93496 24.7385 12.4057C24.7385 17.8765 29.1735 22.3115 34.6443 22.3115Z" fill="#F0F0F0"/>
<path d="M56.7882 22.3115C62.259 22.3115 66.6939 17.8765 66.6939 12.4057C66.6939 6.93496 62.259 2.5 56.7882 2.5C51.3174 2.5 46.8824 6.93496 46.8824 12.4057C46.8824 17.8765 51.3174 22.3115 56.7882 22.3115Z" fill="#F0F0F0"/>
<path d="M22.406 2.5H2.604V22.302H22.406V2.5Z" fill="#F0F0F0"/>
<path d="M14.8568 32.3792H12.0199C11.9681 32.0121 11.8623 31.6861 11.7025 31.4011C11.5427 31.1118 11.3376 30.8657 11.0872 30.6628C10.8367 30.4598 10.5474 30.3044 10.2193 30.1964C9.89542 30.0885 9.54351 30.0345 9.16353 30.0345C8.47697 30.0345 7.87893 30.2051 7.36941 30.5462C6.85989 30.883 6.46479 31.3752 6.18412 32.0229C5.90345 32.6663 5.76312 33.4479 5.76312 34.3676C5.76312 35.3132 5.90345 36.1077 6.18412 36.7511C6.46911 37.3945 6.86636 37.8803 7.37588 38.2084C7.88541 38.5366 8.47481 38.7007 9.1441 38.7007C9.51976 38.7007 9.86736 38.651 10.1869 38.5517C10.5107 38.4524 10.7979 38.3077 11.0483 38.1177C11.2988 37.9234 11.506 37.6881 11.6701 37.4118C11.8385 37.1354 11.9551 36.8202 12.0199 36.4661L14.8568 36.4791C14.7834 37.0879 14.5999 37.6752 14.3062 38.2408C14.0169 38.8021 13.6262 39.3052 13.1339 39.7499C12.646 40.1904 12.063 40.5401 11.3851 40.7992C10.7115 41.054 9.9494 41.1814 9.09876 41.1814C7.91563 41.1814 6.85773 40.9136 5.92504 40.3782C4.99668 39.8428 4.26262 39.0677 3.72287 38.053C3.18744 37.0383 2.91973 35.8098 2.91973 34.3676C2.91973 32.9211 3.19176 31.6904 3.73583 30.6757C4.27989 29.661 5.01827 28.8881 5.95095 28.357C6.88363 27.8215 7.9329 27.5538 9.09876 27.5538C9.86736 27.5538 10.5798 27.6618 11.2362 27.8777C11.8968 28.0936 12.4819 28.4088 12.9914 28.8233C13.5009 29.2335 13.9155 29.7366 14.235 30.3324C14.5588 30.9283 14.7661 31.6106 14.8568 32.3792ZM20.7639 41.1943C19.7578 41.1943 18.8877 40.9806 18.1537 40.5531C17.4239 40.1213 16.8605 39.5211 16.4632 38.7525C16.0659 37.9796 15.8673 37.0836 15.8673 36.0646C15.8673 35.0369 16.0659 34.1387 16.4632 33.3701C16.8605 32.5972 17.4239 31.997 18.1537 31.5695C18.8877 31.1377 19.7578 30.9218 20.7639 30.9218C21.77 30.9218 22.6379 31.1377 23.3676 31.5695C24.1017 31.997 24.6674 32.5972 25.0646 33.3701C25.4619 34.1387 25.6605 35.0369 25.6605 36.0646C25.6605 37.0836 25.4619 37.9796 25.0646 38.7525C24.6674 39.5211 24.1017 40.1213 23.3676 40.5531C22.6379 40.9806 21.77 41.1943 20.7639 41.1943ZM20.7769 39.0569C21.2346 39.0569 21.6167 38.9274 21.9233 38.6683C22.2299 38.4049 22.4609 38.0465 22.6163 37.5931C22.7761 37.1397 22.856 36.6237 22.856 36.0451C22.856 35.4665 22.7761 34.9505 22.6163 34.4971C22.4609 34.0437 22.2299 33.6853 21.9233 33.4219C21.6167 33.1586 21.2346 33.0269 20.7769 33.0269C20.3148 33.0269 19.9262 33.1586 19.611 33.4219C19.3001 33.6853 19.0648 34.0437 18.905 34.4971C18.7496 34.9505 18.6718 35.4665 18.6718 36.0451C18.6718 36.6237 18.7496 37.1397 18.905 37.5931C19.0648 38.0465 19.3001 38.4049 19.611 38.6683C19.9262 38.9274 20.3148 39.0569 20.7769 39.0569ZM26.9074 41V31.0514H29.6666V41H26.9074ZM28.2935 29.7689C27.8833 29.7689 27.5314 29.6329 27.2378 29.3609C26.9485 29.0845 26.8038 28.7542 26.8038 28.3699C26.8038 27.9899 26.9485 27.6639 27.2378 27.3919C27.5314 27.1155 27.8833 26.9774 28.2935 26.9774C28.7037 26.9774 29.0535 27.1155 29.3428 27.3919C29.6364 27.6639 29.7832 27.9899 29.7832 28.3699C29.7832 28.7542 29.6364 29.0845 29.3428 29.3609C29.0535 29.6329 28.7037 29.7689 28.2935 29.7689ZM34.0889 35.2485V41H31.3297V31.0514H33.9594V32.8066H34.076C34.2962 32.228 34.6654 31.7703 35.1835 31.4335C35.7017 31.0924 36.3299 30.9218 37.0683 30.9218C37.7592 30.9218 38.3615 31.073 38.8754 31.3752C39.3892 31.6775 39.7886 32.1093 40.0736 32.6706C40.3586 33.2276 40.5011 33.8926 40.5011 34.6655V41H37.7419V35.1578C37.7462 34.5489 37.5908 34.074 37.2756 33.7328C36.9604 33.3874 36.5264 33.2147 35.9737 33.2147C35.6024 33.2147 35.2742 33.2946 34.9892 33.4543C34.7085 33.6141 34.4883 33.8473 34.3286 34.1538C34.1731 34.4561 34.0932 34.821 34.0889 35.2485ZM50.9761 32.0229C50.8854 31.7077 50.7581 31.4292 50.594 31.1874C50.4299 30.9413 50.2291 30.734 49.9916 30.5656C49.7584 30.3929 49.4907 30.2612 49.1885 30.1705C48.8905 30.0798 48.5602 30.0345 48.1975 30.0345C47.5196 30.0345 46.9237 30.2029 46.4098 30.5397C45.9003 30.8765 45.5031 31.3666 45.2181 32.01C44.9331 32.649 44.7906 33.4306 44.7906 34.3546C44.7906 35.2787 44.9309 36.0646 45.2116 36.7122C45.4923 37.3599 45.8895 37.8544 46.4034 38.1955C46.9172 38.5323 47.5239 38.7007 48.2234 38.7007C48.8581 38.7007 49.4 38.5884 49.8491 38.3639C50.3025 38.135 50.6479 37.8133 50.8854 37.3988C51.1272 36.9843 51.2481 36.4942 51.2481 35.9285L51.8181 36.0127H48.3983V33.9012H53.949V35.5723C53.949 36.7382 53.7029 37.7399 53.2107 38.5776C52.7184 39.411 52.0405 40.0544 51.1769 40.5078C50.3133 40.9568 49.3245 41.1814 48.2104 41.1814C46.9669 41.1814 45.8744 40.9072 44.9331 40.3588C43.9918 39.8061 43.2577 39.0224 42.7309 38.0076C42.2085 36.9886 41.9472 35.7796 41.9472 34.3805C41.9472 33.3054 42.1027 32.3468 42.4136 31.5048C42.7288 30.6584 43.1692 29.9417 43.7349 29.3544C44.3005 28.7672 44.959 28.3203 45.7103 28.0137C46.4617 27.7071 47.2756 27.5538 48.1522 27.5538C48.9035 27.5538 49.603 27.6639 50.2507 27.8841C50.8984 28.1 51.4727 28.4066 51.9736 28.8039C52.4788 29.2011 52.8911 29.6739 53.2107 30.2223C53.5302 30.7664 53.7353 31.3666 53.826 32.0229H50.9761ZM59.9906 41.1943C58.9672 41.1943 58.0863 40.987 57.348 40.5725C56.6139 40.1537 56.0482 39.5621 55.651 38.7978C55.2537 38.0292 55.0551 37.1203 55.0551 36.071C55.0551 35.0477 55.2537 34.1495 55.651 33.3766C56.0482 32.6037 56.6074 32.0013 57.3285 31.5695C58.0539 31.1377 58.9046 30.9218 59.8805 30.9218C60.5368 30.9218 61.1478 31.0276 61.7134 31.2392C62.2834 31.4465 62.78 31.7595 63.2031 32.1784C63.6306 32.5972 63.9631 33.124 64.2006 33.7587C64.4381 34.3892 64.5568 35.1275 64.5568 35.9739V36.7317H56.1562V35.0218H61.9596C61.9596 34.6245 61.8732 34.2726 61.7005 33.966C61.5278 33.6594 61.2881 33.4198 60.9815 33.2471C60.6793 33.07 60.3274 32.9815 59.9258 32.9815C59.5069 32.9815 59.1356 33.0787 58.8118 33.273C58.4922 33.463 58.2418 33.7199 58.0604 34.0437C57.8791 34.3633 57.7862 34.7195 57.7819 35.1124V36.7382C57.7819 37.2304 57.8726 37.6557 58.0539 38.0141C58.2396 38.3725 58.5009 38.6489 58.8377 38.8432C59.1745 39.0375 59.5739 39.1346 60.0359 39.1346C60.3425 39.1346 60.6231 39.0915 60.8779 39.0051C61.1327 38.9187 61.3507 38.7892 61.5321 38.6165C61.7134 38.4438 61.8516 38.2322 61.9466 37.9817L64.4985 38.1501C64.369 38.7633 64.1034 39.2987 63.7019 39.7564C63.3046 40.2098 62.7908 40.5639 62.1603 40.8186C61.5342 41.0691 60.811 41.1943 59.9906 41.1943ZM68.5694 35.2485V41H65.8102V31.0514H68.4399V32.8066H68.5565C68.7767 32.228 69.1459 31.7703 69.664 31.4335C70.1822 31.0924 70.8105 30.9218 71.5488 30.9218C72.2397 30.9218 72.8421 31.073 73.3559 31.3752C73.8698 31.6775 74.2692 32.1093 74.5542 32.6706C74.8391 33.2276 74.9816 33.8926 74.9816 34.6655V41H72.2224V35.1578C72.2268 34.5489 72.0713 34.074 71.7561 33.7328C71.4409 33.3874 71.0069 33.2147 70.4542 33.2147C70.0829 33.2147 69.7547 33.2946 69.4697 33.4543C69.1891 33.6141 68.9688 33.8473 68.8091 34.1538C68.6536 34.4561 68.5738 34.821 68.5694 35.2485ZM81.143 41.1943C80.1196 41.1943 79.2387 40.987 78.5004 40.5725C77.7663 40.1537 77.2007 39.5621 76.8034 38.7978C76.4062 38.0292 76.2075 37.1203 76.2075 36.071C76.2075 35.0477 76.4062 34.1495 76.8034 33.3766C77.2007 32.6037 77.7598 32.0013 78.4809 31.5695C79.2064 31.1377 80.057 30.9218 81.0329 30.9218C81.6892 30.9218 82.3002 31.0276 82.8658 31.2392C83.4358 31.4465 83.9324 31.7595 84.3555 32.1784C84.783 32.5972 85.1155 33.124 85.353 33.7587C85.5905 34.3892 85.7092 35.1275 85.7092 35.9739V36.7317H77.3086V35.0218H83.112C83.112 34.6245 83.0256 34.2726 82.8529 33.966C82.6802 33.6594 82.4405 33.4198 82.1339 33.2471C81.8317 33.07 81.4798 32.9815 81.0782 32.9815C80.6594 32.9815 80.288 33.0787 79.9642 33.273C79.6446 33.463 79.3942 33.7199 79.2128 34.0437C79.0315 34.3633 78.9386 34.7195 78.9343 35.1124V36.7382C78.9343 37.2304 79.025 37.6557 79.2064 38.0141C79.392 38.3725 79.6533 38.6489 79.9901 38.8432C80.3269 39.0375 80.7263 39.1346 81.1883 39.1346C81.4949 39.1346 81.7756 39.0915 82.0303 39.0051C82.2851 38.9187 82.5031 38.7892 82.6845 38.6165C82.8658 38.4438 83.004 38.2322 83.099 37.9817L85.6509 38.1501C85.5214 38.7633 85.2558 39.2987 84.8543 39.7564C84.457 40.2098 83.9432 40.5639 83.3128 40.8186C82.6867 41.0691 81.9634 41.1943 81.143 41.1943ZM86.9627 41V31.0514H89.6377V32.7872H89.7413C89.9226 32.1697 90.2271 31.7034 90.6545 31.3882C91.082 31.0686 91.5743 30.9089 92.1313 30.9089C92.2695 30.9089 92.4184 30.9175 92.5782 30.9348C92.738 30.9521 92.8783 30.9758 92.9992 31.006V33.4543C92.8697 33.4155 92.6905 33.3809 92.4616 33.3507C92.2328 33.3205 92.0233 33.3054 91.8333 33.3054C91.4275 33.3054 91.0647 33.3939 90.7452 33.5709C90.43 33.7436 90.1796 33.9854 89.9939 34.2963C89.8125 34.6072 89.7219 34.9656 89.7219 35.3715V41H86.9627ZM96.4305 41.1878C95.7958 41.1878 95.2301 41.0777 94.7335 40.8575C94.237 40.633 93.844 40.3026 93.5547 39.8665C93.2697 39.4261 93.1272 38.8777 93.1272 38.2214C93.1272 37.6687 93.2287 37.2045 93.4317 36.8288C93.6346 36.4532 93.911 36.1509 94.2607 35.9221C94.6105 35.6932 95.0077 35.5205 95.4525 35.4039C95.9015 35.2873 96.3722 35.2053 96.8645 35.1578C97.4431 35.0973 97.9094 35.0412 98.2635 34.9894C98.6176 34.9332 98.8745 34.8512 99.0342 34.7432C99.194 34.6353 99.2739 34.4755 99.2739 34.264V34.2251C99.2739 33.8149 99.1443 33.4975 98.8853 33.273C98.6305 33.0484 98.2678 32.9362 97.7971 32.9362C97.3006 32.9362 96.9055 33.0463 96.6119 33.2665C96.3182 33.4824 96.1239 33.7544 96.0289 34.0826L93.477 33.8753C93.6065 33.2708 93.8613 32.7483 94.2413 32.3079C94.6213 31.8632 95.1114 31.522 95.7116 31.2845C96.3161 31.0427 97.0156 30.9218 97.8101 30.9218C98.3628 30.9218 98.8917 30.9866 99.3969 31.1161C99.9065 31.2457 100.358 31.4465 100.751 31.7185C101.148 31.9905 101.461 32.3403 101.69 32.7678C101.919 33.1909 102.033 33.6983 102.033 34.2899V41H99.4164V39.6204H99.3387C99.1789 39.9313 98.9652 40.2055 98.6974 40.443C98.4297 40.6762 98.108 40.8597 97.7324 40.9935C97.3567 41.1231 96.9227 41.1878 96.4305 41.1878ZM97.2207 39.2836C97.6266 39.2836 97.985 39.2037 98.2959 39.044C98.6068 38.8799 98.8507 38.6597 99.0278 38.3833C99.2048 38.107 99.2933 37.7939 99.2933 37.4441V36.3884C99.207 36.4445 99.0882 36.4963 98.9371 36.5438C98.7903 36.587 98.624 36.628 98.4384 36.6669C98.2527 36.7015 98.067 36.7338 97.8813 36.7641C97.6957 36.79 97.5273 36.8137 97.3761 36.8353C97.0523 36.8828 96.7695 36.9584 96.5277 37.062C96.2858 37.1656 96.098 37.306 95.9642 37.483C95.8303 37.6557 95.7634 37.8716 95.7634 38.1307C95.7634 38.5064 95.8994 38.7935 96.1714 38.9921C96.4478 39.1864 96.7975 39.2836 97.2207 39.2836ZM106.386 27.7352V41H103.627V27.7352H106.386Z" fill="#F0F0F0"/>
</svg>
