<svg width="139" height="41" viewBox="0 0 139 41" fill="none" xmlns="http://www.w3.org/2000/svg">
<g clip-path="url(#clip0_109_260)">
<path d="M25.4099 1.97689L21.4769 0.923035L18.1625 13.2926L15.1702 2.12527L11.2371 3.17913L14.4701 15.2446L6.41746 7.19201L3.53827 10.0712L12.371 18.904L1.37124 15.9566L0.317383 19.8896L12.336 23.11C12.1984 22.5165 12.1256 21.8981 12.1256 21.2627C12.1256 16.7651 15.7716 13.1191 20.2692 13.1191C24.7668 13.1191 28.4128 16.7651 28.4128 21.2627C28.4128 21.894 28.3409 22.5086 28.205 23.0986L39.1277 26.0253L40.1815 22.0923L28.1151 18.8591L39.1156 15.9115L38.0617 11.9785L25.9958 15.2115L34.0484 7.15895L31.1692 4.27976L22.459 12.99L25.4099 1.97689Z" fill="#F0F0F0"/>
<path d="M28.1944 23.1444C27.8572 24.57 27.1453 25.8507 26.1685 26.8768L34.0815 34.7899L36.9607 31.9107L28.1944 23.1444Z" fill="#F0F0F0"/>
<path d="M26.0884 26.9596C25.0998 27.9693 23.8505 28.7228 22.4495 29.1111L25.3289 39.8571L29.2619 38.8032L26.0884 26.9596Z" fill="#F0F0F0"/>
<path d="M22.3026 29.1504C21.6526 29.3175 20.9713 29.4063 20.2692 29.4063C19.517 29.4063 18.7886 29.3043 18.0971 29.1134L15.2151 39.8692L19.1481 40.923L22.3026 29.1504Z" fill="#F0F0F0"/>
<path d="M17.9581 29.0737C16.5785 28.6661 15.3514 27.903 14.383 26.8904L6.45056 34.8229L9.32975 37.7021L17.9581 29.0737Z" fill="#F0F0F0"/>
<path d="M14.3168 26.8203C13.365 25.8013 12.6717 24.5377 12.3417 23.1341L1.3833 26.0704L2.43715 30.0034L14.3168 26.8203Z" fill="#F0F0F0"/>
<path d="M46.9957 6.54401H49.9827L53.1376 14.241H53.2719L56.4267 6.54401H59.4138V18H57.0644V10.5435H56.9693L54.0046 17.9441H52.4048L49.4402 10.5156H49.3451V18H46.9957V6.54401ZM60.9368 18V6.54401H68.6562V8.54098H63.3589V11.2707H68.259V13.2677H63.3589V16.003H68.6786V18H60.9368ZM70.1093 6.54401H73.0963L76.2512 14.241H76.3854L79.5403 6.54401H82.5274V18H80.178V10.5435H80.0829L77.1182 17.9441H75.5184L72.5537 10.5156H72.4586V18H70.1093V6.54401ZM84.0504 18V6.54401H91.7698V8.54098H86.4725V11.2707H91.3726V13.2677H86.4725V16.003H91.7921V18H84.0504Z" fill="#F0F0F0"/>
<path d="M47.1199 33.6558V20.7704H55.6514V23.0165H49.8442V26.0869H55.0852V28.333H49.8442V33.6558H47.1199ZM60.5591 33.8445C59.5817 33.8445 58.7366 33.6369 58.0235 33.2216C57.3146 32.8022 56.7673 32.2192 56.3814 31.4726C55.9955 30.7217 55.8025 29.8514 55.8025 28.8615C55.8025 27.8632 55.9955 26.9908 56.3814 26.2442C56.7673 25.4934 57.3146 24.9103 58.0235 24.4951C58.7366 24.0756 59.5817 23.8659 60.5591 23.8659C61.5364 23.8659 62.3794 24.0756 63.0883 24.4951C63.8014 24.9103 64.3508 25.4934 64.7367 26.2442C65.1226 26.9908 65.3156 27.8632 65.3156 28.8615C65.3156 29.8514 65.1226 30.7217 64.7367 31.4726C64.3508 32.2192 63.8014 32.8022 63.0883 33.2216C62.3794 33.6369 61.5364 33.8445 60.5591 33.8445ZM60.5716 31.7683C61.0162 31.7683 61.3875 31.6424 61.6853 31.3908C61.9831 31.1349 62.2075 30.7868 62.3585 30.3463C62.5137 29.9059 62.5913 29.4047 62.5913 28.8426C62.5913 28.2806 62.5137 27.7793 62.3585 27.3389C62.2075 26.8985 61.9831 26.5504 61.6853 26.2945C61.3875 26.0386 61.0162 25.9107 60.5716 25.9107C60.1228 25.9107 59.7453 26.0386 59.4391 26.2945C59.1371 26.5504 58.9085 26.8985 58.7533 27.3389C58.6023 27.7793 58.5268 28.2806 58.5268 28.8426C58.5268 29.4047 58.6023 29.9059 58.7533 30.3463C58.9085 30.7868 59.1371 31.1349 59.4391 31.3908C59.7453 31.6424 60.1228 31.7683 60.5716 31.7683ZM72.7241 29.541V23.9918H75.4044V33.6558H72.8311V31.9004H72.7304C72.5123 32.4666 72.1495 32.9217 71.642 33.2657C71.1386 33.6096 70.5241 33.7816 69.7985 33.7816C69.1525 33.7816 68.5842 33.6348 68.0935 33.3412C67.6027 33.0476 67.2189 32.6302 66.9421 32.0891C66.6694 31.5481 66.531 30.9 66.5268 30.145V23.9918H69.2071V29.6668C69.2113 30.2373 69.3644 30.6882 69.6664 31.0196C69.9684 31.3509 70.3731 31.5166 70.8807 31.5166C71.2036 31.5166 71.5056 31.4432 71.7867 31.2964C72.0677 31.1454 72.2942 30.9231 72.4662 30.6295C72.6423 30.3359 72.7283 29.973 72.7241 29.541ZM79.697 28.0688V33.6558H77.0167V23.9918H79.5712V25.6968H79.6844C79.8983 25.1347 80.2569 24.6901 80.7603 24.363C81.2636 24.0316 81.8739 23.8659 82.5912 23.8659C83.2623 23.8659 83.8474 24.0127 84.3465 24.3063C84.8457 24.6 85.2337 25.0194 85.5105 25.5647C85.7873 26.1058 85.9257 26.7517 85.9257 27.5025V33.6558H83.2455V27.9807C83.2497 27.3893 83.0987 26.9279 82.7925 26.5965C82.4863 26.261 82.0648 26.0932 81.5279 26.0932C81.1671 26.0932 80.8484 26.1708 80.5715 26.326C80.2989 26.4812 80.085 26.7077 79.9298 27.0055C79.7788 27.2991 79.7012 27.6535 79.697 28.0688ZM91.0677 33.8131C90.3337 33.8131 89.6689 33.6243 89.0733 33.2468C88.4819 32.8651 88.0121 32.3051 87.6639 31.5669C87.32 30.8245 87.148 29.9143 87.148 28.8363C87.148 27.729 87.3263 26.8083 87.6828 26.0743C88.0393 25.3361 88.5133 24.7845 89.1047 24.4196C89.7003 24.0505 90.3526 23.8659 91.0614 23.8659C91.6025 23.8659 92.0534 23.9582 92.4142 24.1428C92.7791 24.3231 93.0727 24.5496 93.295 24.8223C93.5215 25.0907 93.6935 25.355 93.8109 25.615H93.8927V20.7704H96.5667V33.6558H93.9242V32.108H93.8109C93.6851 32.3765 93.5068 32.6428 93.2761 32.9071C93.0496 33.1671 92.7539 33.3831 92.389 33.5551C92.0283 33.7271 91.5878 33.8131 91.0677 33.8131ZM91.9171 31.6802C92.3491 31.6802 92.7141 31.5627 93.0119 31.3278C93.3139 31.0888 93.5446 30.7553 93.7039 30.3275C93.8675 29.8996 93.9493 29.3984 93.9493 28.8238C93.9493 28.2491 93.8696 27.75 93.7102 27.3263C93.5508 26.9027 93.3202 26.5755 93.0182 26.3448C92.7162 26.1141 92.3491 25.9988 91.9171 25.9988C91.4767 25.9988 91.1055 26.1183 90.8035 26.3574C90.5015 26.5965 90.2729 26.9279 90.1177 27.3515C89.9625 27.7751 89.8849 28.2659 89.8849 28.8238C89.8849 29.3858 89.9625 29.8829 90.1177 30.3149C90.2771 30.7427 90.5057 31.0783 90.8035 31.3216C91.1055 31.5606 91.4767 31.6802 91.9171 31.6802ZM100.995 33.8382C100.378 33.8382 99.8285 33.7313 99.3461 33.5173C98.8638 33.2992 98.4821 32.9784 98.201 32.5547C97.9242 32.1269 97.7858 31.5942 97.7858 30.9566C97.7858 30.4197 97.8844 29.9688 98.0815 29.6039C98.2786 29.239 98.5471 28.9454 98.8868 28.7231C99.2266 28.5008 99.6125 28.333 100.045 28.2198C100.481 28.1065 100.938 28.0268 101.416 27.9807C101.978 27.922 102.431 27.8674 102.775 27.8171C103.119 27.7626 103.369 27.6829 103.524 27.578C103.679 27.4731 103.757 27.318 103.757 27.1124V27.0747C103.757 26.6762 103.631 26.3679 103.379 26.1498C103.132 25.9317 102.779 25.8226 102.322 25.8226C101.84 25.8226 101.456 25.9296 101.171 26.1435C100.885 26.3532 100.697 26.6175 100.604 26.9363L98.1255 26.7349C98.2514 26.1477 98.4988 25.6402 98.868 25.2123C99.2371 24.7803 99.7131 24.449 100.296 24.2183C100.883 23.9834 101.563 23.8659 102.335 23.8659C102.872 23.8659 103.385 23.9288 103.876 24.0547C104.371 24.1805 104.809 24.3755 105.191 24.6398C105.577 24.904 105.881 25.2438 106.103 25.659C106.326 26.0701 106.437 26.563 106.437 27.1376V33.6558H103.895V32.3156H103.82C103.664 32.6176 103.457 32.884 103.197 33.1147C102.937 33.3412 102.624 33.5194 102.259 33.6495C101.894 33.7753 101.473 33.8382 100.995 33.8382ZM101.762 31.9885C102.156 31.9885 102.505 31.9109 102.807 31.7557C103.109 31.5963 103.346 31.3824 103.518 31.1139C103.689 30.8455 103.775 30.5414 103.775 30.2016V29.1761C103.692 29.2306 103.576 29.281 103.429 29.3271C103.287 29.369 103.125 29.4089 102.945 29.4466C102.765 29.4802 102.584 29.5116 102.404 29.541C102.224 29.5662 102.06 29.5892 101.913 29.6102C101.599 29.6564 101.324 29.7298 101.089 29.8304C100.854 29.9311 100.672 30.0674 100.542 30.2394C100.412 30.4072 100.347 30.6169 100.347 30.8686C100.347 31.2335 100.479 31.5124 100.743 31.7053C101.011 31.8941 101.351 31.9885 101.762 31.9885ZM113.125 23.9918V26.0051H107.305V23.9918H113.125ZM108.626 21.6764H111.307V30.6861C111.307 30.9336 111.344 31.1265 111.42 31.2649C111.495 31.3991 111.6 31.4935 111.735 31.5481C111.873 31.6026 112.032 31.6298 112.213 31.6298C112.339 31.6298 112.464 31.6194 112.59 31.5984C112.716 31.5732 112.813 31.5543 112.88 31.5418L113.301 33.5362C113.167 33.5782 112.978 33.6264 112.735 33.6809C112.492 33.7397 112.196 33.7753 111.848 33.7879C111.202 33.8131 110.636 33.7271 110.149 33.5299C109.667 33.3328 109.291 33.0266 109.023 32.6113C108.754 32.1961 108.622 31.6718 108.626 31.0384V21.6764ZM114.339 33.6558V23.9918H117.02V33.6558H114.339ZM115.686 22.746C115.287 22.746 114.946 22.6139 114.66 22.3496C114.379 22.0812 114.239 21.7603 114.239 21.387C114.239 21.0179 114.379 20.7012 114.66 20.437C114.946 20.1685 115.287 20.0343 115.686 20.0343C116.084 20.0343 116.424 20.1685 116.705 20.437C116.99 20.7012 117.133 21.0179 117.133 21.387C117.133 21.7603 116.99 22.0812 116.705 22.3496C116.424 22.6139 116.084 22.746 115.686 22.746ZM123.002 33.8445C122.024 33.8445 121.179 33.6369 120.466 33.2216C119.757 32.8022 119.21 32.2192 118.824 31.4726C118.438 30.7217 118.245 29.8514 118.245 28.8615C118.245 27.8632 118.438 26.9908 118.824 26.2442C119.21 25.4934 119.757 24.9103 120.466 24.4951C121.179 24.0756 122.024 23.8659 123.002 23.8659C123.979 23.8659 124.822 24.0756 125.531 24.4951C126.244 24.9103 126.793 25.4934 127.179 26.2442C127.565 26.9908 127.758 27.8632 127.758 28.8615C127.758 29.8514 127.565 30.7217 127.179 31.4726C126.793 32.2192 126.244 32.8022 125.531 33.2216C124.822 33.6369 123.979 33.8445 123.002 33.8445ZM123.014 31.7683C123.459 31.7683 123.83 31.6424 124.128 31.3908C124.426 31.1349 124.65 30.7868 124.801 30.3463C124.956 29.9059 125.034 29.4047 125.034 28.8426C125.034 28.2806 124.956 27.7793 124.801 27.3389C124.65 26.8985 124.426 26.5504 124.128 26.2945C123.83 26.0386 123.459 25.9107 123.014 25.9107C122.565 25.9107 122.188 26.0386 121.882 26.2945C121.58 26.5504 121.351 26.8985 121.196 27.3389C121.045 27.7793 120.969 28.2806 120.969 28.8426C120.969 29.4047 121.045 29.9059 121.196 30.3463C121.351 30.7868 121.58 31.1349 121.882 31.3908C122.188 31.6424 122.565 31.7683 123.014 31.7683ZM131.65 28.0688V33.6558H128.969V23.9918H131.524V25.6968H131.637C131.851 25.1347 132.21 24.6901 132.713 24.363C133.216 24.0316 133.827 23.8659 134.544 23.8659C135.215 23.8659 135.8 24.0127 136.299 24.3063C136.798 24.6 137.186 25.0194 137.463 25.5647C137.74 26.1058 137.878 26.7517 137.878 27.5025V33.6558H135.198V27.9807C135.202 27.3893 135.051 26.9279 134.745 26.5965C134.439 26.261 134.017 26.0932 133.481 26.0932C133.12 26.0932 132.801 26.1708 132.524 26.326C132.252 26.4812 132.038 26.7077 131.882 27.0055C131.731 27.2991 131.654 27.6535 131.65 28.0688Z" fill="#F0F0F0"/>
</g>
<defs>
<clipPath id="clip0_109_260">
<rect width="139" height="41" fill="white"/>
</clipPath>
</defs>
</svg>
